<svg width="18" height="18" xmlns="http://www.w3.org/2000/svg"><path d="M15.84 10.294c-1.184-.07-2.328.04-3.477.26.472 1.244.845 2.49 1.077 3.807 1.272-1.09 2.07-2.423 2.4-4.067m-2.69-6.86c-1.12-1.1-4.328-1.786-5.61-1.228l2.375 3.301a16.257 16.257 0 0 0 3.234-2.074m-2.258 3.87c.2.403.397.782.575 1.17.062.135.131.154.268.126 1.334-.277 2.681-.419 4.046-.35.043.003.087-.005.138-.009a6.924 6.924 0 0 0-1.313-3.365 18.532 18.532 0 0 1-3.714 2.427m-8.57-.277c1.955.237 3.805-.089 5.624-.698-.32-.662-2.083-2.987-2.51-3.31-1.528.942-2.57 2.262-3.115 4.008m.905 5.866c1.828-1.727 3.964-2.89 6.328-3.706l-.545-1.069c-2.266.808-4.56 1.232-6.969.93a6.956 6.956 0 0 0 1.186 3.845m1.397 1.504c.011.016.017.027.026.035.026.023.054.044.082.065 1.948 1.453 4.087 1.821 6.411 1.126.411-.124.402-.13.341-.56-.189-1.329-.577-2.602-1.05-3.852-.019-.047-.045-.09-.066-.134-1.914.531-4.64 2.106-5.744 3.32M8.437 0h1.125c.04.01.077.026.116.03a8.573 8.573 0 0 1 3.927 1.242C15.93 2.7 17.358 4.76 17.86 7.45c.062.338.094.682.14 1.023v1.055c-.01.051-.027.101-.03.153a8.57 8.57 0 0 1-1.244 3.926c-1.429 2.324-3.488 3.752-6.177 4.253-.337.063-.68.095-1.022.141h-1.09c-.045-.01-.089-.023-.134-.03-.468-.073-.943-.115-1.402-.222-3.463-.804-6.18-3.7-6.765-7.198-.054-.327-.09-.658-.136-.988V8.437c.01-.05.022-.1.03-.153.061-.41.1-.825.184-1.23C.941 3.56 3.92.708 7.431.138 7.765.084 8.102.045 8.437 0" fill="#403F48" fill-rule="evenodd"/></svg>