<svg width="17" height="17" xmlns="http://www.w3.org/2000/svg"><path d="M0 17V6h4v11H0zm16.942 0h-3.657v-.484c-.002-1.874.009-3.75-.01-5.625a5.767 5.767 0 0 0-.164-1.385c-.422-1.638-2.196-1.59-2.979-.82-.505.5-.715 1.105-.71 1.824.015 2.005.006 4.01.004 6.016v.473H5.763V5.429h3.66v1.507c.092-.076.124-.093.142-.12 1.034-1.533 2.493-1.94 4.183-1.576 1.71.367 2.63 1.575 3.004 3.254a8.92 8.92 0 0 1 .205 1.816c.025 2.122.01 4.245.01 6.366 0 .102-.016.203-.025.324zM2.012 0C3.168 0 3.997.84 4 2.014c.003 1.15-.838 1.98-2.013 1.986C.833 4.005-.007 3.154 0 1.99.01.83.85 0 2.013 0z" fill="#403F48" fill-rule="evenodd"/></svg>