<svg width="22" height="14" xmlns="http://www.w3.org/2000/svg"><path d="M14 2v-.922c0-.023.006-.047.01-.078H19v1h-5zm4.795 5.53c.058-.99-.596-1.87-1.529-2.068a2.636 2.636 0 0 0-1.421.082c-.81.276-1.548 1.23-1.536 1.985h4.486zM16.22 14c-.376-.056-.756-.092-1.126-.173-1.987-.437-3.18-1.68-3.613-3.65-.358-1.634-.085-3.185.79-4.606.84-1.365 2.132-2.011 3.694-2.157.78-.074 1.555-.039 2.317.17 1.205.332 2.084 1.055 2.626 2.18.55 1.137.655 2.344.57 3.61h-7.131c-.151.633.216 1.568.81 1.954.298.194.653.369.997.405a5.28 5.28 0 0 0 1.525-.06c.717-.134 1.2-.57 1.29-1.351h2.416c.006.663-.126 1.283-.468 1.847-.563.926-1.45 1.377-2.46 1.625-.375.092-.762.139-1.143.206H16.22zM2.964 2.432v3.053c1.241 0 2.454.006 3.667-.004.456-.004.776-.254.869-.732.078-.403.12-.833.08-1.24-.074-.774-.44-1.077-1.173-1.077H2.964zm-.012 8.832h.636c1.043-.005 2.087.01 3.13-.022.698-.023 1.173-.46 1.281-1.184a3.84 3.84 0 0 0-.014-1.216c-.148-.829-.668-1.24-1.462-1.24H2.952v3.662zM0 .014C.085.011.16.004.236.004 2.371.003 4.506-.008 6.64.013c.474.005.961.066 1.416.201 1.368.407 2.212 1.55 2.28 3.055a5.02 5.02 0 0 1-.089 1.243c-.177.845-.697 1.385-1.468 1.655-.071.025-.143.045-.275.087 1.141.092 1.779.746 2.09 1.799.294.997.306 2.01.019 3.004-.414 1.434-1.424 2.175-2.744 2.492a5.57 5.57 0 0 1-1.263.147c-2.104.015-4.207.007-6.311.007H0V.014z" fill="#403F48" fill-rule="evenodd"/></svg>