<svg width="18" height="16" xmlns="http://www.w3.org/2000/svg"><path d="M6.677 13.716l.07-.014c.013-.064.035-.127.04-.192.061-.738.135-1.475.175-2.214.026-.49.176-.866.54-1.208a955.825 955.825 0 0 0 6.845-6.531c.166-.16.537-.331.373-.572-.175-.256-.473.017-.683.156-1.21.798-2.413 1.605-3.618 2.409L5.555 8.796c-.163.109-.342.192-.253.474.464 1.48.918 2.964 1.375 4.446M17.21.001c.532-.004.876.444.771 1.078-.15.904-.332 1.803-.512 2.702-.748 3.743-1.5 7.485-2.25 11.228-.047.231-.114.452-.247.642-.23.326-.53.419-.894.298-.24-.08-.438-.235-.636-.39-1.2-.938-2.402-1.872-3.595-2.82-.206-.164-.327-.166-.514.036-.572.618-1.167 1.212-1.753 1.816-.14.144-.283.28-.47.358-.482.2-.766.065-.924-.454-.475-1.552-.958-3.102-1.412-4.66-.113-.388-.308-.58-.672-.69A98.843 98.843 0 0 1 .876 8.08C.519 7.957.006 7.91 0 7.41c-.006-.46.466-.63.817-.778 2.01-.843 4.028-1.666 6.045-2.491a8779.69 8779.69 0 0 1 9.64-3.937c.23-.093.452-.214.708-.203" fill="#403F48" fill-rule="evenodd"/></svg>