<?xml version="1.0" encoding="UTF-8"?>
<svg width="18px" height="18px" viewBox="0 0 18 18" version="1.1" xmlns="http://www.w3.org/2000/svg" xmlns:xlink="http://www.w3.org/1999/xlink">
    <!-- Generator: sketchtool 49.1 (51147) - http://www.bohemiancoding.com/sketch -->
    <title>26B597E0-904D-4F9B-A8D0-70D94588327F</title>
    <desc>Created with sketchtool.</desc>
    <defs></defs>
    <g id="Page-1" stroke="none" stroke-width="1" fill="none" fill-rule="evenodd">
        <g id="Coming-Soon" transform="translate(-374.000000, -807.000000)" fill="#403F48">
            <g id="3" transform="translate(115.000000, 797.000000)">
                <g id="d" transform="translate(249.000000, 0.000000)">
                    <path d="M25.8394,20.2944 C24.6564,20.2244 23.5124,20.3334 22.3634,20.5534 C22.8354,21.7984 23.2084,23.0444 23.4404,24.3614 C24.7124,23.2704 25.5104,21.9384 25.8394,20.2944 M23.1494,13.4334 C22.0304,12.3344 18.8224,11.6484 17.5404,12.2064 C18.3264,13.2994 19.1174,14.3984 19.9154,15.5074 C21.0564,14.9484 22.1484,14.2634 23.1494,13.4334 M20.8914,17.3024 C21.0914,17.7064 21.2884,18.0854 21.4664,18.4724 C21.5284,18.6084 21.5974,18.6274 21.7344,18.5994 C23.0684,18.3224 24.4154,18.1804 25.7804,18.2494 C25.8234,18.2524 25.8674,18.2444 25.9184,18.2404 C25.7764,16.9954 25.3414,15.8844 24.6054,14.8754 C23.4634,15.8414 22.2254,16.6354 20.8914,17.3024 M12.3204,17.0254 C14.2764,17.2624 16.1264,16.9364 17.9454,16.3274 C17.6244,15.6654 15.8624,13.3404 15.4344,13.0164 C13.9074,13.9594 12.8654,15.2794 12.3204,17.0254 M13.2254,22.8914 C15.0534,21.1644 17.1894,20.0004 19.5534,19.1854 C19.3664,18.8174 19.1874,18.4674 19.0084,18.1164 C16.7424,18.9244 14.4484,19.3484 12.0394,19.0454 C12.0554,20.4404 12.4454,21.7104 13.2254,22.8914 M14.6224,24.3954 C14.6334,24.4114 14.6394,24.4224 14.6484,24.4304 C14.6744,24.4534 14.7024,24.4744 14.7304,24.4954 C16.6784,25.9484 18.8174,26.3164 21.1414,25.6214 C21.5524,25.4974 21.5434,25.4904 21.4824,25.0604 C21.2934,23.7324 20.9054,22.4594 20.4314,21.2094 C20.4134,21.1624 20.3874,21.1184 20.3664,21.0754 C18.4524,21.6064 15.7264,23.1814 14.6224,24.3954 M18.4374,10.0004 L19.5624,10.0004 C19.6014,10.0104 19.6394,10.0264 19.6784,10.0294 C21.0864,10.1304 22.4034,10.5344 23.6054,11.2724 C25.9304,12.7004 27.3584,14.7604 27.8604,17.4494 C27.9224,17.7874 27.9544,18.1314 28.0004,18.4724 L28.0004,19.5274 C27.9894,19.5784 27.9734,19.6284 27.9694,19.6804 C27.8684,21.0874 27.4644,22.4054 26.7264,23.6064 C25.2974,25.9304 23.2384,27.3584 20.5494,27.8594 C20.2124,27.9224 19.8684,27.9544 19.5274,28.0004 L18.4374,28.0004 C18.3924,27.9894 18.3484,27.9774 18.3034,27.9704 C17.8354,27.8974 17.3604,27.8554 16.9014,27.7484 C13.4384,26.9444 10.7214,24.0484 10.1364,20.5504 C10.0824,20.2234 10.0454,19.8924 10.0004,19.5624 L10.0004,18.4374 C10.0104,18.3864 10.0224,18.3364 10.0304,18.2844 C10.0914,17.8744 10.1304,17.4594 10.2144,17.0534 C10.9414,13.5604 13.9204,10.7094 17.4314,10.1394 C17.7654,10.0844 18.1024,10.0454 18.4374,10.0004" id="ic_social_dribbbble"></path>
                </g>
            </g>
        </g>
    </g>
</svg>