<?xml version="1.0" encoding="UTF-8"?>
<svg width="18px" height="16px" viewBox="0 0 18 16" version="1.1" xmlns="http://www.w3.org/2000/svg" xmlns:xlink="http://www.w3.org/1999/xlink">
    <!-- Generator: sketchtool 49.1 (51147) - http://www.bohemiancoding.com/sketch -->
    <title>4F052314-5DB4-41EE-8825-3D1B6FF06339</title>
    <desc>Created with sketchtool.</desc>
    <defs></defs>
    <g id="Page-1" stroke="none" stroke-width="1" fill="none" fill-rule="evenodd">
        <g id="Coming-Soon" transform="translate(-430.000000, -808.000000)" fill="#403F48">
            <g id="3" transform="translate(115.000000, 797.000000)">
                <g id="t" transform="translate(307.000000, 0.000000)">
                    <path d="M14.6768906,24.7161258 C14.7000887,24.7114263 14.7232867,24.7068093 14.7464848,24.7021099 C14.7603413,24.6380492 14.7815154,24.5745656 14.7869646,24.5096805 C14.8483071,23.7719518 14.9221828,23.0348827 14.9615728,22.295835 C14.987729,21.8051151 15.1383606,21.4304796 15.5019784,21.0880805 C17.796873,18.9266708 20.072384,16.7421761 22.3471166,14.556857 C22.5134731,14.3970762 22.8837856,14.2260004 22.7196866,13.9849277 C22.5454677,13.7288498 22.2471625,14.0024887 22.0365118,14.1414106 C20.8274884,14.9386654 19.6242257,15.7458137 18.4191725,16.5499116 C16.7977998,17.6316882 15.1764272,18.7135473 13.5554438,19.7959836 C13.3923568,19.9049774 13.2130001,19.9880008 13.3015886,20.2699668 C13.7660946,21.7498762 14.2195465,23.233743 14.6768906,24.7161258 M25.2102856,11.0007048 C25.7422839,10.9973245 26.0858175,11.4453372 25.9812706,12.0786065 C25.8318844,12.9832063 25.6491025,13.8819524 25.4694343,14.7806984 C24.7211025,18.5239211 23.9681,22.2660719 23.218834,26.0091296 C23.1724379,26.2403912 23.1053348,26.4607699 22.9715178,26.6513031 C22.7426511,26.9767183 22.4420885,27.0700474 22.07777,26.9493461 C21.8375379,26.869868 21.6399652,26.7143744 21.4416919,26.5592107 C20.2423214,25.6207255 19.0395258,24.6869398 17.8470057,23.7388084 C17.6414149,23.5753176 17.5195084,23.5730091 17.3327563,23.7748374 C16.7609788,24.3929366 16.1660811,24.9872089 15.5802913,25.5907976 C15.4404802,25.7349135 15.2970882,25.8717742 15.1104918,25.9491088 C14.6276142,26.149453 14.3444112,26.0142413 14.1857614,25.4950775 C13.711369,23.9426979 13.2284914,22.3931215 12.7739497,20.8342286 C12.6610733,20.4472261 12.4656803,20.2557861 12.1015954,20.1442363 C11.0199278,19.8126377 9.9467454,19.4492973 8.87582053,19.0802681 C8.51881963,18.9570934 8.00643848,18.9094395 8.00005512,18.4100629 C7.99413884,17.9491061 8.46572878,17.7796792 8.8168134,17.6323478 C10.8270259,16.7889231 12.8451786,15.9663573 14.8621637,15.1409884 C18.0748604,13.8263836 21.288647,12.5144996 24.502745,11.2037698 C24.7310668,11.1107705 24.9542507,10.989657 25.2102856,11.0007048" id="ic_social_telegram"></path>
                </g>
            </g>
        </g>
    </g>
</svg>