<?xml version="1.0" encoding="UTF-8"?>
<svg width="22px" height="14px" viewBox="0 0 22 14" version="1.1" xmlns="http://www.w3.org/2000/svg" xmlns:xlink="http://www.w3.org/1999/xlink">
    <!-- Generator: sketchtool 49.1 (51147) - http://www.bohemiancoding.com/sketch -->
    <title>20DCC5D4-0A83-451C-B8A0-52A3A8197353</title>
    <desc>Created with sketchtool.</desc>
    <defs></defs>
    <g id="Page-1" stroke="none" stroke-width="1" fill="none" fill-rule="evenodd">
        <g id="Coming-Soon" transform="translate(-315.000000, -809.000000)" fill="#403F48">
            <g id="3" transform="translate(115.000000, 797.000000)">
                <g id="be" transform="translate(191.000000, 0.000000)">
                    <path d="M23,14 C23,13.6823308 23,13.3806391 23,13.0784774 C23,13.0545113 23.0055188,13.031015 23.0096578,13 L28,13 L28,14 L23,14 Z M27.7952286,19.5290929 C27.8533714,18.5398786 27.1988714,17.6606643 26.2662286,17.4618786 C25.7877286,17.3597357 25.3100143,17.3856643 24.8448714,17.5443786 C24.0355857,17.8201643 23.2970143,18.7732357 23.3088,19.5290929 L27.7952286,19.5290929 Z M25.2188714,26.0002357 C24.8433,25.9436643 24.4630143,25.9083071 24.0929429,25.8265929 C22.1058714,25.3897357 20.9123714,24.1475214 20.4802286,22.1777357 C20.1219429,20.5426643 20.3945857,18.99245 21.2690857,17.5710929 C22.1098,16.2055214 23.4015143,15.5596643 24.9643,15.4135214 C25.7437286,15.34045 26.5192286,15.3750214 27.2813714,15.5848071 C28.4858714,15.9163786 29.3650857,16.6392357 29.9072286,17.7635929 C30.4564429,18.9005214 30.5617286,20.1081643 30.4776571,21.3731643 L23.3457286,21.3731643 C23.1948714,22.0072357 23.5618,22.9422357 24.1565857,23.3280214 C24.4543714,23.5220929 24.8087286,23.6965214 25.1528714,23.73345 C25.6549429,23.7868786 26.1813714,23.7680214 26.6779429,23.6737357 C27.3953,23.5393786 27.8777286,23.1033071 27.9680857,22.3215214 L30.3841571,22.3215214 C30.3904429,22.9846643 30.2584429,23.6045929 29.9158714,24.1687357 C29.3525143,25.0950929 28.4662286,25.5460929 27.4558,25.7943786 C27.0810143,25.8863071 26.6944429,25.9326643 26.3133714,26.0002357 L25.2188714,26.0002357 Z M11.9643533,14.4325 L11.9643533,17.4845 C13.2051533,17.4845 14.4180867,17.4915 15.63102,17.4806111 C16.0871533,17.4767222 16.4068867,17.2270556 16.50002,16.7487222 C16.5784867,16.3458333 16.6195533,15.9165 16.5806867,15.5097222 C16.5058867,14.7350556 16.1399533,14.4325 15.4073533,14.4325 L15.0362867,14.4325 L11.9643533,14.4325 Z M11.9518867,23.2641667 C12.1733533,23.2641667 12.3808867,23.2649444 12.5876867,23.2641667 C13.63122,23.2595 14.6747533,23.2742778 15.7175533,23.2416111 C16.4156867,23.2190556 16.8908867,22.7827222 16.99942,22.0578333 C17.05882,21.6619444 17.0551533,21.2357222 16.9854867,20.8421667 C16.8373533,20.0130556 16.3166867,19.6023889 15.52322,19.6023889 L12.2070867,19.6023889 L11.9518867,19.6023889 L11.9518867,23.2641667 Z M9.00022,12.0143889 C9.08528667,12.0105 9.16082,12.0035 9.23635333,12.0035 C11.3710867,12.0027222 13.50582,11.9918333 15.63982,12.0128333 C16.1135533,12.0175 16.60122,12.0789444 17.0558867,12.2142778 C18.4242867,12.6210556 19.2683533,13.7643889 19.33582,15.2693889 C19.3548867,15.6816111 19.3306867,16.1101667 19.2470867,16.5122778 C19.0703533,17.3569444 18.5496867,17.8967222 17.7789533,18.1666111 C17.70782,18.1915 17.6359533,18.2117222 17.5039533,18.2537222 C18.64502,18.3462778 19.28302,18.9996111 19.5939533,20.0527222 C19.88802,21.0498333 19.9004867,22.0632778 19.61302,23.0572778 C19.19942,24.4907222 18.1888867,25.2319444 16.8688867,25.5485 C16.45822,25.6472778 16.0277533,25.6939444 15.6060867,25.6962778 C13.5021533,25.7110556 11.3989533,25.7032778 9.29502,25.7032778 L9.00022,25.7032778 L9.00022,12.0143889 Z" id="ic_social_behance"></path>
                </g>
            </g>
        </g>
    </g>
</svg>