<?xml version="1.0" encoding="UTF-8"?>
<svg width="17px" height="17px" viewBox="0 0 17 17" version="1.1" xmlns="http://www.w3.org/2000/svg" xmlns:xlink="http://www.w3.org/1999/xlink">
    <!-- Generator: sketchtool 49.1 (51147) - http://www.bohemiancoding.com/sketch -->
    <title>2437A527-FE88-40E0-AB5F-9679E15FB02B</title>
    <desc>Created with sketchtool.</desc>
    <defs></defs>
    <g id="Page-1" stroke="none" stroke-width="1" fill="none" fill-rule="evenodd">
        <g id="Coming-Soon" transform="translate(-258.000000, -807.000000)" fill="#403F48">
            <g id="3" transform="translate(115.000000, 797.000000)">
                <g id="in" transform="translate(133.000000, 0.000000)">
                    <path d="M10,27 L10,16 L14,16 L14,27 L10,27 Z M26.94167,27.0002667 L23.28477,27.0002667 L23.28477,26.5162667 C23.28347,24.6416 23.29387,22.7669333 23.27567,20.8909333 C23.27177,20.4282667 23.22627,19.9522667 23.11057,19.5056 C22.68937,17.8682667 20.91487,17.9162667 20.13227,18.6856 C19.62657,19.1856 19.41727,19.7909333 19.42247,20.5096 C19.43677,22.5149333 19.42767,24.5202667 19.42637,26.5256 L19.42637,26.9989333 L15.76297,26.9989333 L15.76297,15.4296 L19.42247,15.4296 L19.42247,16.9362667 C19.51477,16.8602667 19.54727,16.8429333 19.56547,16.8162667 C20.59897,15.2829333 22.05757,14.8762667 23.74757,15.2402667 C25.45707,15.6069333 26.37877,16.8149333 26.75187,18.4936 C26.88447,19.0842667 26.94947,19.7029333 26.95727,20.3096 C26.98197,22.4322667 26.96767,24.5549333 26.96767,26.6762667 C26.96767,26.7776 26.95077,26.8789333 26.94167,27.0002667 Z M12.0125929,10 C13.1665679,10 13.9962232,10.8392391 13.9999944,12.0139087 C14.0025085,13.1633879 13.1615397,13.9946721 11.9874518,13.9999754 C10.8334768,14.0052786 9.99250801,13.1541072 10.0000503,11.9900441 C10.0088497,10.8299584 10.8485614,10 12.0125929,10 Z" id="ic_social_linkedin"></path>
                </g>
            </g>
        </g>
    </g>
</svg>