<svg xmlns="http://www.w3.org/2000/svg"><defs><font id="HelveticaNeueCyr-Roman" horiz-adv-x="556"><font-face font-family="HelveticaNeueCyr" font-weight="400" panose-1="2 0 5 3 4 0 0 2 0 4" ascent="800" descent="-200" x-height="516" cap-height="712" bbox="-29 -214 1068 899" underline-thickness="50" underline-position="-100" stemh="75" stemv="85" unicode-range="U+0020-E001"/><glyph glyph-name=".notdef" horiz-adv-x="1000"/><glyph glyph-name="exclam" unicode="!" horiz-adv-x="259" d="M177 712V494l-25-317h-46L83 494v218h94zm5-611V0H77v101h105z"/><glyph glyph-name="quotedbl" unicode="&quot;" horiz-adv-x="426" d="M159 418h-46l-10 278h65zm155 0h-47l-9 278h65z"/><glyph glyph-name="numbersign" unicode="#" d="M147 0H82l40 211H14v56h118l32 164H56l-1 55h119l40 210h65l-40-210h130l41 210h64l-40-210h108v-55H424l-32-164h108l1-56H382L342 0h-64l39 211H187zm181 267l31 164H228l-31-164h131z"/><glyph glyph-name="dollar" unicode="$" d="M298 788v-69c127-2 202-63 204-192h-84v6c0 71-40 110-120 116V401c116-33 221-64 221-208C519 71 438-7 298-16v-83h-47v83C121-10 31 61 31 203v10h85c-1-6-1-10-1-13 0-90 48-137 136-145v275C131 353 45 403 45 522c0 125 92 186 206 197v69h47zm-47-378v237c-76-7-123-51-123-118 0-76 58-104 123-119zm47-91V54c80 2 136 58 136 137 0 82-66 113-136 128z"/><glyph glyph-name="percent" unicode="%" horiz-adv-x="1000" d="M727 731L328-34h-68l401 765h66zm-469-20c102 0 157-67 157-191 0-136-56-210-161-210-106 0-161 69-161 202 0 127 59 199 165 199zm-4-58c-57 0-86-49-86-146 0-94 29-140 86-140 77 0 86 90 86 149 0 92-28 137-86 137zm502-267c102 0 157-67 157-191 0-136-56-210-161-210-106 0-161 69-161 202 0 127 59 199 165 199zm-4-58c-57 0-86-49-86-146 0-94 29-140 86-140 77 0 86 90 86 149 0 92-28 137-86 137z"/><glyph glyph-name="ampersand" unicode="&amp;" horiz-adv-x="630" d="M555 337c-3-66-21-129-49-176L644 0H534l-76 90C408 19 338-15 250-15 131-15 33 60 33 186c0 100 81 176 167 214-55 67-77 114-77 165 0 89 68 151 166 151 96 0 163-61 163-148 0-86-59-147-131-185l130-159c13 32 21 73 23 113h81zM276 438c45 27 94 66 94 123 0 49-35 85-82 85s-83-34-83-78c0-45 44-96 71-130zm-30-93c-59-30-124-82-124-155S183 58 259 58c61 0 113 30 151 89z"/><glyph glyph-name="quotesingle" unicode="'" horiz-adv-x="278" d="M162 418h-46l-10 278h65z"/><glyph glyph-name="parenleft" unicode="(" horiz-adv-x="259" d="M269 725c-87-134-133-295-133-461 0-161 47-318 133-454h-65C105-36 48 88 48 263c0 162 52 323 156 462h65z"/><glyph glyph-name="parenright" unicode=")" horiz-adv-x="259" d="M209 263c0-175-57-299-156-453h-65C74-54 121 103 121 264c0 166-46 327-133 461h65c104-139 156-300 156-462z"/><glyph glyph-name="asterisk" unicode="*" horiz-adv-x="352" d="M328 601l-109-38 66-90-41-30-69 94-66-94-44 30 65 90-106 38 17 49 107-40v113h54V610l106 40z"/><glyph glyph-name="plus" unicode="+" horiz-adv-x="600" d="M267 0v221H49v59h218v221h66V280h218v-59H333V0h-66z"/><glyph glyph-name="comma" unicode="," horiz-adv-x="278" d="M194 111V43c0-89-12-165-111-191v50c38 13 54 43 55 98H83v111h111z"/><glyph glyph-name="hyphen" unicode="-" horiz-adv-x="389" d="M340 320v-84H49v84h291z"/><glyph glyph-name="period" unicode="." horiz-adv-x="278" d="M194 111V0H83v111h111z"/><glyph glyph-name="slash" unicode="/" horiz-adv-x="333" d="M351 729L54-17h-72l299 746h70z"/><glyph glyph-name="zero" unicode="0" d="M277 709c221 0 237-203 237-372 0-167-30-351-233-351C66-14 41 170 41 339s17 370 236 370zm0-76c-149 0-146-186-146-294 0-105 3-278 148-278s144 180 144 282c0 105 3 290-146 290z"/><glyph glyph-name="one" unicode="1" d="M358 708V0h-93v513H87v64c105 0 180 25 204 131h67z"/><glyph glyph-name="two" unicode="2" d="M487 77V0H25c9 163 88 221 211 298 76 48 169 100 169 203 0 79-56 134-137 134-106 0-136-90-138-178H44v19c0 140 91 233 228 233 134 0 221-81 221-206 0-138-108-204-212-267-65-39-139-79-158-159h364z"/><glyph glyph-name="three" unicode="3" d="M46 479c4 147 85 230 225 230 125 0 208-74 208-185 0-67-36-122-97-148 80-19 130-85 130-171C513 73 412-14 267-14 124-14 30 71 30 206v13h84c4-101 60-158 154-158 90 0 153 56 153 138 0 83-61 136-157 136-17 0-25-1-46-4v72c14-1 19-1 29-1 88 0 143 45 143 117 0 70-49 116-123 116-85 0-135-56-138-156H46z"/><glyph glyph-name="four" unicode="4" d="M515 243v-72h-96V0h-80v171H28v80l322 458h69V243h96zm-176 0v341L103 243h236z"/><glyph glyph-name="five" unicode="5" d="M471 696v-75H184l-42-211c39 42 85 56 143 56 133 0 224-94 224-232 0-143-98-248-245-248C129-14 39 67 35 191h86c7-79 65-133 144-133 88 0 154 72 154 167 0 98-63 167-155 167-58 0-104-23-136-69l-73 5 66 368h350z"/><glyph glyph-name="six" unicode="6" d="M500 525h-87c-9 66-48 110-120 110-152 0-165-178-170-274 39 63 102 93 176 93 132 0 220-91 220-227 0-137-89-241-233-241C81-14 39 173 39 338c0 170 48 371 257 371 119 0 195-68 204-184zM284 380c-86 0-145-63-145-157 0-98 60-161 147-161 85 0 143 61 143 157 0 99-56 161-145 161z"/><glyph glyph-name="seven" unicode="7" d="M504 696v-73C367 467 262 269 233 0h-94c16 226 128 449 278 615H46v81h458z"/><glyph glyph-name="eight" unicode="8" d="M165 379c-62 26-98 80-98 149 0 107 87 181 211 181 122 0 209-73 209-177 0-70-33-123-97-153 83-29 125-88 125-173 0-135-93-220-240-220C134-14 40 71 40 200c0 86 45 150 125 179zm113 254c-74 0-124-44-124-111s50-111 124-111 122 44 122 111c0 68-48 111-122 111zm-3-291c-85 0-146-59-146-140 0-84 62-144 148-144 88 0 149 59 149 143s-61 141-151 141z"/><glyph glyph-name="nine" unicode="9" d="M50 171h84c9-69 58-111 130-111 122 0 150 134 158 231 2 21 2 28 2 47-40-65-94-97-173-97-129 0-217 93-217 230 0 142 95 238 234 238 205 0 244-184 244-346 0-161-47-377-251-377C143-14 58 54 50 171zm214 462c-83 0-140-63-140-159 0-86 47-157 140-157 87 0 145 62 145 155 0 98-58 161-145 161z"/><glyph glyph-name="colon" unicode=":" horiz-adv-x="278" d="M194 111V0H83v111h111zm0 405V405H83v111h111z"/><glyph glyph-name="semicolon" unicode=";" horiz-adv-x="278" d="M194 111V43c0-89-12-165-111-191v50c38 13 54 43 55 98H83v111h111zm0 405V405H83v111h111z"/><glyph glyph-name="less" unicode="&lt;" horiz-adv-x="600" d="M49 223v65l502 200v-67L128 255 551 91V24z"/><glyph glyph-name="equal" unicode="=" horiz-adv-x="600" d="M49 324v60h502v-60H49zm0-190v59h502v-59H49z"/><glyph glyph-name="greater" unicode="&gt;" horiz-adv-x="600" d="M551 223L49 24v67l423 164L49 421v67l502-200v-65z"/><glyph glyph-name="question" unicode="?" d="M55 489c0 131 72 236 225 236 128 0 211-75 211-192 0-75-29-121-78-167-67-63-97-76-97-193h-82v6c0 121 28 147 110 229 43 43 57 73 57 115 0 78-47 126-122 126-102 0-135-72-140-160H55zm271-388V0H221v101h105z"/><glyph glyph-name="at" unicode="@" horiz-adv-x="800" d="M701 119l21-29C619 14 531-17 418-17 206-17 31 124 31 345c0 218 175 384 404 384 196 0 334-122 334-298 0-141-95-263-203-263-46 0-78 29-78 71 0 10 1 17 5 33-29-59-72-104-143-104-80 0-134 61-134 150 0 130 92 243 198 243 64 0 107-33 120-90l21 75h58l-59-199c-14-48-20-75-20-94 0-27 18-43 47-43 76 0 148 109 148 223 0 153-120 257-295 257-206 0-363-149-363-346C71 145 230 22 420 22c111 0 193 36 281 97zM507 430c0 53-32 90-81 90-89 0-142-128-142-203 0-66 32-107 82-107 92 0 141 146 141 220z"/><glyph glyph-name="A" unicode="A" horiz-adv-x="648" d="M378 712L656 0H551l-79 218H173L92 0H-8l280 712h106zm66-419L323 622 200 293h244z"/><glyph glyph-name="B" unicode="B" horiz-adv-x="685" d="M79 712h304c118 0 227-47 227-178 0-70-41-130-105-153 88-20 137-86 137-180C642 37 508 0 372 0H79v712zm92-80V407h169c80 0 176 6 176 113s-83 112-167 112H171zm0-299V79h188c95 0 188 6 188 131 0 124-109 123-204 123H171z"/><glyph glyph-name="C" unicode="C" horiz-adv-x="722" d="M682 269C666 88 550-17 374-17 171-17 44 127 44 355c0 204 118 373 337 373 140 0 281-78 295-230h-94c-21 93-97 149-203 149-169 0-240-141-240-291 0-181 91-292 239-292 121 0 195 72 210 205h94z"/><glyph glyph-name="D" unicode="D" horiz-adv-x="704" d="M79 712h232c240 0 353-106 353-350C664 130 569 0 328 0H79v712zm94-81V81h143c180 0 255 87 255 270 0 190-66 280-259 280H173z"/><glyph glyph-name="E" unicode="E" horiz-adv-x="611" d="M572 712v-82H173V407h373v-79H173V82h404V0H79v712h493z"/><glyph glyph-name="F" unicode="F" horiz-adv-x="574" d="M548 712v-82H174V408h330v-79H174V0H80v712h468z"/><glyph glyph-name="G" unicode="G" horiz-adv-x="759" d="M697 377V0h-60l-24 89C553 15 482-17 383-17 181-17 44 131 44 350c0 209 124 377 346 377 143 0 285-80 298-234h-92c-14 93-96 155-206 155-155 0-252-114-252-295 0-178 97-292 251-292 150 0 220 102 224 239H385v77h312z"/><glyph glyph-name="H" unicode="H" horiz-adv-x="722" d="M643 712V0h-94v333H173V0H79v712h94V415h376v297h94z"/><glyph glyph-name="I" unicode="I" horiz-adv-x="259" d="M177 712V0H83v712h94z"/><glyph glyph-name="J" unicode="J" horiz-adv-x="519" d="M443 712V219c0-134-41-236-205-236C84-17 25 62 25 207c0 9 0 14 1 27h91v-25c0-84 17-148 120-148 109 0 112 81 112 167v484h94z"/><glyph glyph-name="K" unicode="K" horiz-adv-x="667" d="M657 712L357 426 669 0H549L291 362 173 250V0H79v712h94V359l361 353h123z"/><glyph glyph-name="L" unicode="L" d="M552 82V0H80v712h94V82h378z"/><glyph glyph-name="M" unicode="M" horiz-adv-x="871" d="M80 712h130l229-603 221 603h131V0h-89v594L479 0h-82L170 594V0H80v712z"/><glyph glyph-name="N" unicode="N" horiz-adv-x="722" d="M75 712h103l376-578v578h91V0H539L165 571V0H75v712z"/><glyph glyph-name="O" unicode="O" horiz-adv-x="760" d="M379 729c221 0 342-155 342-367 0-209-115-379-341-379C152-17 39 157 39 364c0 222 133 365 340 365zm0-82c-168 0-246-138-246-290 0-178 97-293 248-293 149 0 246 116 246 293 0 176-97 290-248 290z"/><glyph glyph-name="P" unicode="P" horiz-adv-x="648" d="M83 712h293c136 0 237-57 237-205 0-161-104-215-243-215H177V0H83v712zm94-81V371h181c91 0 161 25 161 130 0 114-81 130-174 130H177z"/><glyph glyph-name="Q" unicode="Q" horiz-adv-x="760" d="M709-2l-49-59-108 87C504-2 442-17 378-17 156-17 39 154 39 364c0 220 135 364 341 364 211 0 341-140 341-369 0-120-38-221-106-286zM451 204l94-77c61 61 82 144 82 230 0 175-97 290-245 290-167 0-249-134-249-287 0-157 76-297 251-297 34 0 67 5 97 20l-80 63z"/><glyph glyph-name="R" unicode="R" horiz-adv-x="685" d="M79 712h313c134 0 239-44 239-197 0-83-49-152-122-173 100-21 104-89 108-175 3-57 3-129 41-167H550c-23 36-22 116-24 157-6 120-37 151-166 151H173V0H79v712zm94-80V383h177c92 0 187 9 187 126 0 106-78 123-162 123H173z"/><glyph glyph-name="S" unicode="S" horiz-adv-x="648" d="M583 503h-91c-11 103-72 145-177 145-102 0-161-43-161-118 0-80 83-97 193-120 116-24 264-60 264-210C611 42 470-16 334-16 164-16 39 63 39 235h91c4-129 98-174 212-174 83 0 177 29 177 130 0 92-90 110-207 137-115 26-248 45-248 195 0 146 130 203 258 203 151 0 255-70 261-223z"/><glyph glyph-name="T" unicode="T" horiz-adv-x="574" d="M573 712v-82H334V0h-94v630H1v82h572z"/><glyph glyph-name="U" unicode="U" horiz-adv-x="722" d="M74 712h95V263c0-137 55-200 192-200 144 0 192 69 192 200v449h95V288c0-200-71-303-287-303C155-15 74 81 74 278v434z"/><glyph glyph-name="V" unicode="V" horiz-adv-x="611" d="M-2 712h104L307 92l207 620h99L359 0H251z"/><glyph glyph-name="W" unicode="W" horiz-adv-x="926" d="M14 712h97l141-595 161 595h103l159-595 146 595h94L725 0h-99L462 596 296 0h-99z"/><glyph glyph-name="X" unicode="X" horiz-adv-x="611" d="M595 712L358 367 608 0H494L302 293 103 0H-5l251 367L11 712h113l179-274 185 274h107z"/><glyph glyph-name="Y" unicode="Y" horiz-adv-x="648" d="M648 712L373 291V0h-93v291L3 712h113l213-339 211 339h108z"/><glyph glyph-name="Z" unicode="Z" horiz-adv-x="611" d="M574 712v-78L130 82h455V0H17v80l443 550H52v82h522z"/><glyph glyph-name="bracketleft" unicode="[" horiz-adv-x="259" d="M261 723v-68H153v-775h108v-68H72v911h189z"/><glyph glyph-name="backslash" unicode="\" horiz-adv-x="333" d="M351-17h-72L-18 729h70z"/><glyph glyph-name="bracketright" unicode="]" horiz-adv-x="259" d="M187 723v-911H-2v68h108v775H-2v68h189z"/><glyph glyph-name="asciicircum" unicode="^" horiz-adv-x="600" d="M99 281l170 415h62l170-415h-69L299 617 168 281H99z"/><glyph glyph-name="underscore" unicode="_" horiz-adv-x="500" d="M0-125v50h500v-50H0z"/><glyph glyph-name="grave" unicode="`" horiz-adv-x="222" d="M86 732l86-142h-64L-24 732H86z"/><glyph glyph-name="a" unicode="a" horiz-adv-x="537" d="M521 68V2c-18-7-39-10-58-10-48 0-74 27-75 76-51-57-107-82-187-82C99-14 36 42 36 132c0 92 61 146 183 161 123 15 165 12 165 82 0 55-41 85-117 85-79 0-120-29-128-105H56c3 110 83 175 216 175 69 0 128-18 162-50 36-35 35-88 35-134 0-77-4-153-4-230 0-38 9-51 35-51 8 0 12 1 21 3zM384 268c-32-24-76-26-114-31-62-8-146-15-146-98 0-53 39-86 103-86 80 0 157 55 157 121v94z"/><glyph glyph-name="b" unicode="b" horiz-adv-x="593" d="M148 712V445c39 59 100 85 171 85 141 0 233-106 233-270 0-167-94-275-238-275-71 0-137 26-171 90V0H63v712h85zm158-254c-118 0-161-101-161-204 0-122 62-198 161-198 95 0 158 80 158 203 0 122-62 199-158 199z"/><glyph glyph-name="c" unicode="c" horiz-adv-x="537" d="M508 188C493 65 411-15 283-15 123-15 38 94 38 251c0 172 96 280 248 280 126 0 205-66 219-183h-88c-15 73-60 112-130 112-98 0-160-78-160-202 0-126 58-202 154-202 77 0 128 47 141 132h86z"/><glyph glyph-name="d" unicode="d" horiz-adv-x="593" d="M529 712V0h-80v76c-32-59-91-90-170-90C133-14 40 91 40 259c0 146 76 272 235 272 75 0 131-29 169-84v265h85zM286 458c-97 0-158-76-158-197 0-125 62-205 160-205 99 0 158 76 158 202 0 103-44 200-160 200z"/><glyph glyph-name="e" unicode="e" horiz-adv-x="537" d="M505 163C479 44 402-17 280-17 128-17 37 83 37 251c0 167 97 280 240 280 170 0 234-135 234-284v-12H123l-1-6c0-110 61-176 161-176 74 0 115 32 139 110h83zm-82 141c-8 98-63 157-148 157-83 0-141-60-152-157h300z"/><glyph glyph-name="f" unicode="f" horiz-adv-x="296" d="M297 714v-74c-11 2-30 4-47 4-54 0-65-12-65-69v-59h99v-70h-99V0H99v446H12v70h87v69c0 96 52 133 143 133 21 0 30-1 55-4z"/><glyph glyph-name="g" unicode="g" horiz-adv-x="574" d="M511 516V56c0-89-8-130-33-172-37-61-109-94-204-94-104 0-202 36-217 152h87c10-59 53-86 133-86 106 0 150 50 152 169l1 63C396 23 344-6 266-6 128-6 39 96 39 256c0 140 77 274 231 274 71 0 131-32 163-89v75h78zm-237-60c-92 0-148-76-148-201 0-114 60-188 150-188 94 0 152 77 152 202 0 117-57 187-154 187z"/><glyph glyph-name="h" unicode="h" d="M149 712V443c38 57 95 86 169 86 123 0 174-68 174-176V0h-85v333c0 71-21 122-113 122-109 0-145-76-145-193V0H64v712h85z"/><glyph glyph-name="i" unicode="i" horiz-adv-x="222" d="M154 712V608H68v104h86zm0-196V0H68v516h86z"/><glyph glyph-name="j" unicode="j" horiz-adv-x="222" d="M156 516V-57c0-96-22-151-132-151-15 0-22 1-39 4v71c13-1 19-2 29-2 58 0 56 26 56 80v571h86zm0 196V608H70v104h86z"/><glyph glyph-name="k" unicode="k" horiz-adv-x="519" d="M498 516L293 329 513 0H405L228 270l-81-75V0H64v712h83V291l237 225h114z"/><glyph glyph-name="l" unicode="l" horiz-adv-x="222" d="M154 712V0H68v712h86z"/><glyph glyph-name="m" unicode="m" horiz-adv-x="853" d="M144 516v-75c44 59 92 88 168 88 69 0 117-27 143-89 44 59 94 90 171 90 109 0 163-64 163-169V0h-85v325c0 73-11 129-103 129-97 0-132-66-132-161V0h-85v331c0 68-13 122-95 122-114 0-140-83-140-180V0H64v516h80z"/><glyph glyph-name="n" unicode="n" d="M144 516v-80c43 63 97 94 176 94 126 0 172-69 172-187V0h-85v304c0 82-4 152-111 152-111 0-147-84-147-186V0H64v516h80z"/><glyph glyph-name="o" unicode="o" horiz-adv-x="574" d="M290 531c156 0 247-99 247-270 0-175-91-277-248-277C131-16 37 86 37 256s97 275 253 275zm-2-71c-100 0-163-79-163-202 0-127 61-202 165-202 100 0 160 76 160 203 0 123-62 201-162 201z"/><glyph glyph-name="p" unicode="p" horiz-adv-x="593" d="M144 516v-73c40 64 98 89 174 89 144 0 235-104 235-271S463-13 322-13c-76 0-129 25-173 85v-271H64v715h80zm161-55c-99 0-159-76-159-201S208 59 308 59c97 0 157 77 157 201 0 125-60 201-160 201z"/><glyph glyph-name="q" unicode="q" horiz-adv-x="593" d="M529 516v-715h-85V73c-34-55-95-86-173-86C116-13 41 114 41 256c0 170 92 276 238 276 77 0 132-25 171-89v73h79zm-243-55c-95 0-157-80-157-204 0-121 61-199 158-199 99 0 160 78 160 204 0 124-61 199-161 199z"/><glyph glyph-name="r" unicode="r" horiz-adv-x="333" d="M333 528v-88c-9 1-13 1-22 1-140 0-165-107-165-223V0H61v516h81V405c36 87 99 123 191 123z"/><glyph glyph-name="s" unicode="s" horiz-adv-x="500" d="M447 366h-85c-6 68-53 94-126 94-65 0-105-27-105-70 0-58 67-67 137-83 87-20 200-45 200-157 0-100-85-166-214-166C114-16 37 47 32 163h84c5-78 58-109 140-109 76 0 126 34 126 86 0 57-58 69-130 87-89 22-208 33-208 152 0 93 77 152 197 152 116 0 206-56 206-165z"/><glyph glyph-name="t" unicode="t" horiz-adv-x="315" d="M285 516v-70H182V145c0-47-3-76 57-76 17 0 28 1 46 3V-1c-27-3-38-4-65-4C91-5 97 59 97 172v274H10v70h87v153h85V516h103z"/><glyph glyph-name="u" unicode="u" d="M492 516V0h-79v81c-45-65-102-95-178-95C127-14 63 47 63 161v355h85V184c0-74 21-124 108-124 112 0 151 80 151 186v270h85z"/><glyph glyph-name="v" unicode="v" horiz-adv-x="500" d="M14 516h95L255 83l142 433h89L297 0h-91z"/><glyph glyph-name="w" unicode="w" horiz-adv-x="758" d="M17 516h94L229 91l105 425h93L536 91l117 425h88L576 0h-90L380 408 275 0h-92z"/><glyph glyph-name="x" unicode="x" horiz-adv-x="518" d="M488 516L308 278 509 0H400L255 212 112 0H9l194 272L24 516h108l125-177 128 177h103z"/><glyph glyph-name="y" unicode="y" horiz-adv-x="500" d="M491 516L270-66c-28-73-57-142-149-142-22 0-42 4-63 9v76c27-8 40-11 55-11 28 0 50 19 60 43l40 94L8 516h96l153-411 145 411h89z"/><glyph glyph-name="z" unicode="z" horiz-adv-x="480" d="M445 516v-56L131 72h327V0H22v65l308 381H42v70h403z"/><glyph glyph-name="braceleft" unicode="{" horiz-adv-x="333" d="M2 288c108 12 119 52 119 150v48c0 152 44 226 210 237v-52c-100-9-129-49-129-143v-64c0-99-10-180-126-197 120-17 126-98 126-197V18c0-101 24-148 129-154v-52c-158 10-210 79-210 227v58c0 103-16 139-119 149v42z"/><glyph glyph-name="bar" unicode="|" horiz-adv-x="222" d="M78-214V786h66V-214H78z"/><glyph glyph-name="braceright" unicode="}" horiz-adv-x="333" d="M331 246c-103-10-119-46-119-149V39c0-148-52-217-210-227v52c105 6 129 53 129 154v52c0 99 6 180 126 197-116 17-126 98-126 197v64c0 94-29 134-129 143v52c166-11 210-85 210-237v-48c0-98 11-138 119-150v-42z"/><glyph glyph-name="asciitilde" unicode="~" horiz-adv-x="600" d="M562 330c-9-88-54-137-126-137-40 0-99 22-138 35-64 21-107 38-137 38-40 0-72-33-78-80H38c6 71 44 139 125 139 47 0 104-24 150-39 34-11 91-34 128-34 46 0 72 38 78 78h43z"/><glyph glyph-name="afii10017" unicode="А" horiz-adv-x="648" d="M378 712L656 0H551l-79 218H173L92 0H-8l280 712h106zm66-419L323 622 200 293h244z"/><glyph glyph-name="afii10018" unicode="Б" horiz-adv-x="685" d="M173 424h238c140 0 219-78 219-213C630 77 550 0 411 0H79v712h488v-82H173V424zm363-213c0 88-51 131-156 131H173V82h207c104 0 156 42 156 129z"/><glyph glyph-name="afii10019" unicode="В" horiz-adv-x="685" d="M79 712h304c118 0 227-47 227-178 0-70-41-130-105-153 88-20 137-86 137-180C642 37 508 0 372 0H79v712zm92-80V407h169c80 0 176 6 176 113s-83 112-167 112H171zm0-299V79h188c95 0 188 6 188 131 0 124-109 123-204 123H171z"/><glyph glyph-name="afii10020" unicode="Г" horiz-adv-x="547" d="M173 0H79v712h468v-82H173V0z"/><glyph glyph-name="afii10021" unicode="Д" horiz-adv-x="722" d="M706-177h-91V0H100v-177H9V82h70c54 96 93 296 93 492v138h455V82h79v-259zM533 82v548H264v-97c0-177-37-362-81-451h350z"/><glyph glyph-name="afii10022" unicode="Е" horiz-adv-x="611" d="M572 712v-82H173V407h373v-79H173V82h404V0H79v712h493z"/><glyph glyph-name="afii10024" unicode="Ж" horiz-adv-x="1000" d="M1008 0H890L630 354l-84-88V0h-92v266l-84 88L110 0H-8l316 420L24 712h118l312-331v331h92V381l312 331h118L692 420z"/><glyph glyph-name="afii10025" unicode="З" horiz-adv-x="648" d="M609 208c0-88-77-224-277-224C162-16 37 63 37 235h91c4-129 98-174 212-174 98 0 175 58 175 149 0 104-85 125-180 125-20 0-49-1-64-2v78c16-2 48-2 64-2 90 0 155 31 155 128 0 88-73 114-153 114-105 0-166-42-177-145H69c6 153 120 223 271 223 137 0 244-58 244-192 0-75-58-137-118-155v-3c94-18 143-93 143-171z"/><glyph glyph-name="afii10026" unicode="И" horiz-adv-x="722" d="M79 0v712h94V109h2l349 603h119V0h-94v605h-2L197 0H79z"/><glyph glyph-name="afii10027" unicode="Й" horiz-adv-x="722" d="M511 899c-13-80-63-138-150-138-83 0-142 58-152 138h51c14-48 49-78 100-78 52 0 84 30 100 78h51zM79 0v712h94V109h2l349 603h119V0h-94v605h-2L197 0H79z"/><glyph glyph-name="afii10028" unicode="К" horiz-adv-x="667" d="M657 712L357 426 669 0H549L291 362 173 250V0H79v712h94V359l361 353h123z"/><glyph glyph-name="afii10029" unicode="Л" horiz-adv-x="685" d="M604 712V0h-94v630H247l-14-401C228 86 176-15 68-15 48-15 18-8 0-1v80c13-8 40-10 51-10 51 0 88 28 93 209l13 434h447z"/><glyph glyph-name="afii10030" unicode="М" horiz-adv-x="871" d="M80 712h130l229-603 221 603h131V0h-89v594L479 0h-82L170 594V0H80v712z"/><glyph glyph-name="afii10031" unicode="Н" horiz-adv-x="722" d="M643 712V0h-94v333H173V0H79v712h94V415h376v297h94z"/><glyph glyph-name="afii10032" unicode="О" horiz-adv-x="760" d="M379 729c221 0 342-155 342-367 0-209-115-379-341-379C152-17 39 157 39 364c0 222 133 365 340 365zm0-82c-168 0-246-138-246-290 0-178 97-293 248-293 149 0 246 116 246 293 0 176-97 290-248 290z"/><glyph glyph-name="afii10033" unicode="П" horiz-adv-x="722" d="M643 712V0h-94v630H173V0H79v712h564z"/><glyph glyph-name="afii10034" unicode="Р" horiz-adv-x="648" d="M83 712h293c136 0 237-57 237-205 0-161-104-215-243-215H177V0H83v712zm94-81V371h181c91 0 161 25 161 130 0 114-81 130-174 130H177z"/><glyph glyph-name="afii10035" unicode="С" horiz-adv-x="722" d="M682 269C666 88 550-17 374-17 171-17 44 127 44 355c0 204 118 373 337 373 140 0 281-78 295-230h-94c-21 93-97 149-203 149-169 0-240-141-240-291 0-181 91-292 239-292 121 0 195 72 210 205h94z"/><glyph glyph-name="afii10036" unicode="Т" horiz-adv-x="574" d="M573 712v-82H334V0h-94v630H1v82h572z"/><glyph glyph-name="afii10037" unicode="У" horiz-adv-x="611" d="M259 186L-1 712h103l208-434 204 434h101L338 145C278 23 219-17 149-17c-32 0-68 9-88 18v80c13-8 36-18 80-18 50 0 82 48 106 98z"/><glyph glyph-name="afii10038" unicode="Ф" horiz-adv-x="778" d="M746 359c0-186-149-273-311-273V0h-94v86C179 86 30 178 30 359c0 180 149 278 311 278v75h94v-75c165 0 311-97 311-278zm-95 0c0 132-94 195-216 201V163c122 9 216 64 216 196zM341 163v397c-122-6-216-69-216-201s94-187 216-196z"/><glyph glyph-name="afii10039" unicode="Х" horiz-adv-x="611" d="M595 712L358 367 608 0H494L302 293 103 0H-5l251 367L11 712h113l179-274 185 274h107z"/><glyph glyph-name="afii10040" unicode="Ц" horiz-adv-x="722" d="M616-177V0H73v712h94V82h368v630h94V82h78v-259h-91z"/><glyph glyph-name="afii10041" unicode="Ч" horiz-adv-x="667" d="M589 0h-94v317c-35-8-130-25-198-25C79 292 47 430 47 509v203h94V517c0-58 13-142 156-142 89 0 162 16 198 24v313h94V0z"/><glyph glyph-name="afii10042" unicode="Ш" horiz-adv-x="1073" d="M79 0v712h94V82h316v630h94V82h316v630h94V0H79z"/><glyph glyph-name="afii10043" unicode="Щ" horiz-adv-x="1083" d="M976 0H73v712h94V82h316v630h94V82h316v630h94V82h81v-259h-92V0z"/><glyph glyph-name="afii10044" unicode="Ъ" horiz-adv-x="803" d="M234 630H2v82h326V424h218c140 0 219-78 219-213C765 77 685 0 546 0H234v630zm436-419c0 88-51 131-156 131H328V82h186c104 0 156 42 156 129z"/><glyph glyph-name="afii10045" unicode="Ы" horiz-adv-x="871" d="M699 712h94V0h-94v712zm-89-501C610 77 530 0 391 0H79v712h94V423h218c140 0 219-77 219-212zm-95 0c0 88-51 131-156 131H173V82h186c104 0 156 42 156 129z"/><glyph glyph-name="afii10046" unicode="Ь" horiz-adv-x="648" d="M610 211C610 77 530 0 391 0H79v712h94V423h218c140 0 219-77 219-212zm-95 0c0 88-51 131-156 131H173V82h186c104 0 156 42 156 129z"/><glyph glyph-name="afii10047" unicode="Э" horiz-adv-x="722" d="M678 355c0-228-141-372-330-372C179-17 66 80 42 247h95c21-119 93-183 207-183 135 0 231 102 239 270H237v79h342c-16 127-86 234-233 234-103 0-181-53-204-142H47c17 147 159 223 297 223 225 0 334-169 334-373z"/><glyph glyph-name="afii10048" unicode="Ю" horiz-adv-x="1000" d="M307 333H173V0H79v712h94V415h136c18 193 141 314 324 314 212 0 328-155 328-367 0-209-110-379-327-379-208 0-316 157-327 350zm560 24c0 176-92 290-234 290-158 0-232-138-232-290 0-178 92-293 234-293 140 0 232 116 232 293z"/><glyph glyph-name="afii10049" unicode="Я" horiz-adv-x="667" d="M347 304L112 0H-4l238 307C123 322 57 389 57 508c0 134 86 204 225 204h306V0h-94v304H347zm147 80v248H314c-104 0-162-37-162-124 0-88 57-124 162-124h180z"/><glyph glyph-name="dagger" unicode="†" d="M514 506v-74H317v-588h-81v588H42v74h194v206h81V506h197z"/><glyph glyph-name="degree" unicode="°" horiz-adv-x="400" d="M200 710c84 0 151-68 151-151 0-84-67-152-151-152S49 475 49 559c0 83 67 151 151 151zm0-56c-52 0-95-43-95-95 0-53 43-95 95-95s95 42 95 95c0 52-43 95-95 95z"/><glyph glyph-name="afii10050" unicode="Ґ" horiz-adv-x="547" d="M547 873V630H173V0H79v712h373v161h95z"/><glyph glyph-name="sterling" unicode="£" d="M523 484h-87c-5 90-46 160-148 160-82 0-141-54-141-129 0-56 29-94 53-142h159v-43H222c14-31 19-52 19-79 0-95-65-136-114-185 35 17 73 31 112 31 24 0 54-5 82-14 27-8 54-19 83-19 35 0 70 13 97 36l42-66c-34-34-95-51-141-51-41 0-70 13-110 27-33 11-69 19-95 19-44 0-70-16-104-40L47 60c58 39 109 100 109 173 0 31-9 64-26 97H47v43h58c-27 45-46 87-46 141 0 122 94 206 230 206 141 0 234-89 234-226v-10z"/><glyph glyph-name="section" unicode="§" d="M464 545h-84c-6 70-41 106-103 106-56 0-95-32-95-80 0-62 57-86 171-152 75-43 163-89 163-188 0-71-43-121-104-149 36-30 56-61 56-111 0-98-75-164-186-164C163-193 89-124 84-9h85c6-74 45-113 116-113 57 0 97 35 97 84 0 67-111 120-159 147-86 49-186 92-186 208 0 67 40 129 106 145-32 33-46 64-46 103 0 93 74 157 183 157 115 0 184-66 184-177zM189 419c-48-22-72-53-72-94 0-59 56-87 100-113 49-29 98-57 145-88 45 18 72 53 72 92 0 58-58 89-101 115-101 60-115 65-144 88z"/><glyph glyph-name="bullet" unicode="•" horiz-adv-x="500" d="M250 534c98 0 178-80 178-178s-80-178-178-178S72 258 72 356s80 178 178 178z"/><glyph glyph-name="paragraph" unicode="¶" horiz-adv-x="600" d="M546 659h-54v-835h-64v835H306v-835h-64v435c-128 9-205 91-205 220 0 156 111 233 257 233h252v-53z"/><glyph glyph-name="afii10055" unicode="І" horiz-adv-x="259" d="M177 712V0H83v712h94z"/><glyph glyph-name="registered" unicode="®" horiz-adv-x="400" d="M200 729c101 0 183-82 183-184 0-101-82-183-182-183-101 0-183 82-183 183s82 184 182 184zm0-29c-84 0-154-69-154-155 0-85 70-155 155-155 84 0 154 70 154 155 0 86-70 155-155 155zm-71-59h69c37 0 86-7 86-55 0-22-11-37-35-46 23-10 32-27 32-60 0-8 1-17 6-27h-36c-4 8-5 16-5 21 0 46-10 52-56 52h-27v-73h-34v188zm34-87h34c36 0 52 9 52 30 0 29-31 29-53 29h-33v-59z"/><glyph glyph-name="copyright" unicode="©" horiz-adv-x="800" d="M400 729c206 0 373-167 373-372 0-206-167-373-373-373S27 151 27 357c0 205 167 372 373 372zm0-39C215 690 66 541 66 357 66 172 215 23 400 23c184 0 334 149 334 334 0 184-149 333-334 333zm181-408c-11-84-82-141-174-141-121 0-199 84-199 214 0 131 80 222 195 222 94 0 169-63 176-149h-53c-12 63-58 101-121 101-82 0-136-68-136-172 0-103 55-169 141-169 61 0 106 36 119 94h52z"/><glyph glyph-name="trademark" unicode="™" horiz-adv-x="990" d="M234 356v314H112v42h293v-42H283V356h-49zm235 0v356h73l107-284 107 284h71V356h-44v309L668 356h-40L513 665V356h-44z"/><glyph glyph-name="afii10051" unicode="Ђ" horiz-adv-x="746" d="M711 170c0-162-108-305-268-305h-13v81c125 8 186 104 186 224 0 121-57 193-155 193-97 0-158-71-158-192V0h-94v630H1v82h570v-82H303V360h2c31 55 99 82 168 82 144 0 238-107 238-272z"/><glyph glyph-name="afii10099" unicode="ђ" d="M512 86c0-165-112-278-272-284v79c112 13 187 89 187 214v87c0 73-41 113-109 113-91 0-149-54-149-153V0H84v441H9v75h75v196h85V516h236v-75H169V278h2c31 59 87 91 167 91 116 0 174-62 174-189V86z"/><glyph glyph-name="notequal" unicode="≠" horiz-adv-x="600" d="M230 193l68 131H49v60h282l77 147 52-28-64-119h155v-60H365l-69-131h255v-59H264L188-10l-52 28 62 116H49v59h181z"/><glyph glyph-name="afii10052" unicode="Ѓ" horiz-adv-x="547" d="M418 893L298 751h-66l81 142h105zM173 0H79v712h468v-82H173V0z"/><glyph glyph-name="afii10100" unicode="ѓ" horiz-adv-x="420" d="M319 732L199 590h-66l81 142h105zm101-291H151V0H66v516h354v-75z"/><glyph glyph-name="infinity" unicode="∞" horiz-adv-x="741" d="M371 282c50 50 110 114 187 114 83 0 142-61 142-147 0-88-57-148-140-148-59 0-107 27-189 107-54-48-112-107-190-107-82 0-140 60-140 145 0 86 58 149 138 149 76 0 142-63 192-113zm38-37c41-39 93-86 153-86 49 0 81 35 81 87 0 56-33 92-84 92-57 0-112-56-150-93zm-76 1c-44 33-96 91-155 91-46 0-81-39-81-91 0-53 34-87 85-87 53 0 114 50 151 87z"/><glyph glyph-name="plusminus" unicode="±" horiz-adv-x="600" d="M267 93v173H49v60h218v174h66V326h218v-60H333V93h-66zM49-10v60h502v-60H49z"/><glyph glyph-name="lessequal" unicode="≤" horiz-adv-x="600" d="M49 263v65l502 189v-65L132 295l419-155V75zm0-231h502v-59H49v59z"/><glyph glyph-name="greaterequal" unicode="≥" horiz-adv-x="600" d="M551 263L49 75v65l420 155L49 452v65l502-189v-65zm0-231v-59H49v59h502z"/><glyph glyph-name="afii10103" unicode="і" horiz-adv-x="222" d="M154 712V608H68v104h86zm0-196V0H68v516h86z"/><glyph glyph-name="mu" unicode="µ" d="M63-199v715h85V292c0-92-2-224 123-224 126 0 136 131 136 228v220h85V0h-79v80c-38-57-71-92-145-92-63 0-88 24-120 75v-262H63z"/><glyph glyph-name="afii10098" unicode="ґ" horiz-adv-x="420" d="M414 672V441H149V0H64v516h265v156h85z"/><glyph glyph-name="afii10057" unicode="Ј" horiz-adv-x="519" d="M443 712V219c0-134-41-236-205-236C84-17 25 62 25 207c0 9 0 14 1 27h91v-25c0-84 17-148 120-148 109 0 112 81 112 167v484h94z"/><glyph glyph-name="afii10053" unicode="Є" horiz-adv-x="722" d="M677 247C653 80 540-17 371-17 168-17 41 127 41 355c0 204 118 373 337 373 138 0 277-76 294-223h-95c-23 89-98 142-201 142-147 0-220-107-236-234h342v-79H136c8-168 97-270 239-270 114 0 186 64 207 183h95z"/><glyph glyph-name="afii10101" unicode="є" horiz-adv-x="537" d="M508 176C489 60 408-15 285-15 125-15 40 94 40 251c0 172 96 280 248 280 119 0 196-59 216-165h-90c-18 61-61 94-125 94-86 0-144-59-157-156h218v-69H129c7-112 64-179 154-179 73 0 123 43 139 120h86z"/><glyph glyph-name="afii10056" unicode="Ї" horiz-adv-x="259" d="M177 712V0H83v712h94zm93 162V773h-90v101h90zm-189 0V773H-9v101h90z"/><glyph glyph-name="afii10104" unicode="ї" horiz-adv-x="222" d="M154 516V0H68v516h86zm96 196V610h-89v102h89zm-189 0V610h-90v102h90z"/><glyph glyph-name="afii10058" unicode="Љ" horiz-adv-x="1000" d="M962 213C962 79 882 0 743 0H469v630H247l-14-401C228 86 176-15 68-15 40-15 18-9 0-1v80c13-8 31-10 51-10 51 0 88 28 93 209l13 434h406V424h180c140 0 219-76 219-211zm-95 0c0 88-51 129-156 129H563V82h148c104 0 156 44 156 131z"/><glyph glyph-name="afii10106" unicode="љ" horiz-adv-x="778" d="M756 161C756 64 699 0 598 0H372v441H220l-7-228C208 44 142-11 70-11 45-11 20-5 9 0v69c11-6 34-7 45-7 34 0 72 30 75 142l9 312h319V321h141c101 0 158-62 158-160zm-88 0c0 55-30 85-101 85H457V75h110c70 0 101 31 101 86z"/><glyph glyph-name="afii10059" unicode="Њ" horiz-adv-x="1000" d="M475 344H173V0H79v714h94V424h302v290h94V424h174c140 0 219-77 219-212C962 78 882 0 743 0H475v344zm392-132c0 88-51 132-156 132H569V82h142c104 0 156 43 156 130z"/><glyph glyph-name="afii10107" unicode="њ" horiz-adv-x="778" d="M367 246H149V0H64v516h85V321h218v195h85V321h146c101 0 158-62 158-160C756 64 699 0 598 0H367v246zm200 0H452V75h115c70 0 101 31 101 86s-30 85-101 85z"/><glyph glyph-name="afii10105" unicode="ј" horiz-adv-x="222" d="M156 516V-57c0-96-22-151-132-151-15 0-22 1-39 4v71c13-1 19-2 29-2 58 0 56 26 56 80v571h86zm0 196V608H70v104h86z"/><glyph glyph-name="afii10054" unicode="Ѕ" horiz-adv-x="648" d="M583 503h-91c-11 103-72 145-177 145-102 0-161-43-161-118 0-80 83-97 193-120 116-24 264-60 264-210C611 42 470-16 334-16 164-16 39 63 39 235h91c4-129 98-174 212-174 83 0 177 29 177 130 0 92-90 110-207 137-115 26-248 45-248 195 0 146 130 203 258 203 151 0 255-70 261-223z"/><glyph glyph-name="logicalnot" unicode="¬" horiz-adv-x="600" d="M49 324v60h502V133h-62v191H49z"/><glyph glyph-name="radical" unicode="√" horiz-adv-x="600" d="M546 786L336-214h-66L106 126l-46-22-24 50 100 48 159-332 188 916h63z"/><glyph glyph-name="florin" unicode="ƒ" d="M428 447l-13-67H312L247 30C225-88 198-167 63-167c-19 0-29 1-58 3l13 73c17-1 25-2 37-2 81 0 88 46 102 117l69 356h-92l14 67h91l19 105c20 111 68 160 178 160 20 0 31 0 56-3l-15-73c-20 2-28 3-42 3-53 0-78-25-91-92l-20-100h104z"/><glyph glyph-name="approxequal" unicode="≈" horiz-adv-x="600" d="M562 412c-9-88-54-137-126-137-40 0-99 22-138 35-64 21-107 38-137 38-40 0-72-33-78-80H38c6 71 44 139 125 139 47 0 104-24 150-39 34-11 91-34 128-34 46 0 72 38 78 78h43zm0-170c-9-88-54-137-126-137-40 0-99 22-138 35-64 21-107 38-137 38-40 0-72-33-78-80H38c6 71 44 139 125 139 47 0 104-24 150-39 34-11 91-34 128-34 46 0 72 38 78 78h43z"/><glyph glyph-name="Delta" unicode="∆" horiz-adv-x="670" d="M369 712L656 0H14l282 712h73zM106 61h454L331 646z"/><glyph glyph-name="guillemotleft" unicode="«" horiz-adv-x="463" d="M399 427v-87l-100-76 100-78v-85L247 221v87zm-194 0v-85l-103-77 103-78v-87L50 223v85z"/><glyph glyph-name="guillemotright" unicode="»" horiz-adv-x="463" d="M258 429l155-124v-85L258 101v85l102 76-102 79v88zm-195-2l152-121v-85L63 103v85l100 75-100 78v86z"/><glyph glyph-name="ellipsis" unicode="…" horiz-adv-x="1000" d="M126 0v107h82V0h-82zm333 0v107h82V0h-82zm333 0v107h82V0h-82z"/><glyph glyph-name="nbspace" unicode="" horiz-adv-x="278"/><glyph glyph-name="afii10060" unicode="Ћ" horiz-adv-x="746" d="M303 0h-94v630H1v82h570v-82H303V412c39 10 101 30 159 30 218 0 240-138 240-217V0h-95v217c0 58-2 142-145 142-75 0-124-19-159-29V0z"/><glyph glyph-name="afii10108" unicode="ћ" d="M9 441v75h75v196h85V516h226v-75H169V281h2c31 59 87 88 167 88 116 0 174-62 174-189V0h-85v190c0 65-41 104-109 104-91 0-149-53-149-152V0H84v441H9z"/><glyph glyph-name="afii10061" unicode="Ќ" horiz-adv-x="667" d="M657 712L357 426 669 0H549L291 362 173 250V0H79v712h94V359l361 353h123zM458 893L338 751h-66l81 142h105z"/><glyph glyph-name="afii10109" unicode="ќ" horiz-adv-x="519" d="M379 732L259 590h-66l81 142h105zM526 0H418L230 254l-81-79V0H64v516h85V270l236 246h114L291 313z"/><glyph glyph-name="afii10102" unicode="ѕ" horiz-adv-x="500" d="M447 366h-85c-6 68-53 94-126 94-65 0-105-27-105-70 0-58 67-67 137-83 87-20 200-45 200-157 0-100-85-166-214-166C114-16 37 47 32 163h84c5-78 58-109 140-109 76 0 126 34 126 86 0 57-58 69-130 87-89 22-208 33-208 152 0 93 77 152 197 152 116 0 206-56 206-165z"/><glyph glyph-name="endash" unicode="–" horiz-adv-x="500" d="M500 319v-82H0v82h500z"/><glyph glyph-name="emdash" unicode="—" horiz-adv-x="1000" d="M1000 319v-82H0v82h1000z"/><glyph glyph-name="quotedblleft" unicode="“" horiz-adv-x="426" d="M357 478H249v81c0 77 28 145 108 168v-48c-44-19-53-54-55-98h55V478zm-182 0H67v81c0 77 28 145 108 168v-48c-44-19-53-54-55-98h55V478z"/><glyph glyph-name="quotedblright" unicode="”" horiz-adv-x="426" d="M358 712v-81c0-77-28-145-108-168v48c44 19 53 54 55 98h-55v103h108zm-182 0v-81c0-77-28-145-108-168v48c44 19 53 54 55 98H68v103h108z"/><glyph glyph-name="quoteleft" unicode="‘" horiz-adv-x="278" d="M191 473H78v109c0 69 44 130 113 146v-50c-37-12-56-45-57-98h57V473z"/><glyph glyph-name="quoteright" unicode="’" horiz-adv-x="278" d="M199 712V603c0-69-44-130-113-146v50c37 12 56 45 57 98H86v107h113z"/><glyph glyph-name="divide" unicode="÷" horiz-adv-x="600" d="M49 221v59h502v-59H49zM252 24v112h96V24h-96zm0 352v113h96V376h-96z"/><glyph glyph-name="quotedblbase" unicode="„" horiz-adv-x="426" d="M359 103V22c0-77-28-145-108-168v48c44 19 53 54 55 98h-55v103h108zm-182 0V22c0-77-28-145-108-168v48c44 19 53 54 55 98H69v103h108z"/><glyph glyph-name="afii10062" unicode="Ў" horiz-adv-x="611" d="M462 899c-13-80-63-138-150-138-83 0-142 58-152 138h51c14-48 49-78 100-78 52 0 84 30 100 78h51zM259 186L-1 712h103l208-434 204 434h101L338 145C278 23 219-17 149-17c-32 0-68 9-88 18v80c13-8 36-18 80-18 50 0 82 48 106 98z"/><glyph glyph-name="afii10110" unicode="ў" horiz-adv-x="500" d="M406 712c-13-80-63-138-150-138-83 0-142 58-152 138h51c14-48 49-78 100-78 52 0 84 30 100 78h51zm85-196L270-66c-28-73-57-142-149-142-22 0-42 4-63 9v76c27-8 40-11 55-11 28 0 50 19 60 43l40 94L8 516h96l153-411 145 411h89z"/><glyph glyph-name="afii10145" unicode="Џ" horiz-adv-x="722" d="M409 0v-177h-94V0H79v712h94V82h376v630h94V0H409z"/><glyph glyph-name="afii10193" unicode="џ" d="M320 0v-164h-85V0H64v516h85V75h258v441h85V0H320z"/><glyph glyph-name="afii61352" unicode="№" horiz-adv-x="1000" d="M946 274c0-89-54-142-145-142-93 0-149 56-149 143 0 88 57 146 144 146 94 0 150-55 150-147zM944 0H664v63h280V0zM590 0H486L169 555h-2V0H77v696h101l320-561h2v561h90V0zm283 277c0 61-29 89-72 89-46 0-76-29-76-90s29-89 75-89 73 26 73 90z"/><glyph glyph-name="afii10023" unicode="Ё" horiz-adv-x="611" d="M572 712v-82H173V407h373v-79H173V82h404V0H79v712h493zM468 874V773h-90v101h90zm-189 0V773h-91v101h91z"/><glyph glyph-name="afii10071" unicode="ё" horiz-adv-x="537" d="M420 711V610h-90v101h90zm-189 0V610h-91v101h91zm274-548C479 44 402-17 280-17 128-17 37 83 37 251c0 167 97 280 240 280 170 0 234-135 234-284v-12H123l-1-6c0-110 61-176 161-176 74 0 115 32 139 110h83zm-82 141c-8 98-63 157-148 157-83 0-141-60-152-157h300z"/><glyph glyph-name="afii10097" unicode="я" horiz-adv-x="537" d="M472 0h-85v211H274L111 0H-2l178 214c-73 11-128 65-128 150 0 97 62 152 162 152h262V0zm-85 441H237c-70 0-102-25-102-77 0-53 31-78 102-78h150v155z"/><glyph glyph-name="afii10065" unicode="а" horiz-adv-x="537" d="M521 68V2c-18-7-39-10-58-10-48 0-74 27-75 76-51-57-107-82-187-82C99-14 36 42 36 132c0 92 61 146 183 161 123 15 165 12 165 82 0 55-41 85-117 85-79 0-120-29-128-105H56c3 110 83 175 216 175 69 0 128-18 162-50 36-35 35-88 35-134 0-77-4-153-4-230 0-38 9-51 35-51 8 0 12 1 21 3zM384 268c-32-24-76-26-114-31-62-8-146-15-146-98 0-53 39-86 103-86 80 0 157 55 157 121v94z"/><glyph glyph-name="afii10066" unicode="б" horiz-adv-x="574" d="M112 588c46 71 106 102 204 109 65 5 105 6 119 32h85c-19-106-126-104-216-111-113-8-171-95-186-217h3c29 68 95 117 181 117 145 0 235-96 235-264 0-172-89-271-242-271C174-17 77 56 56 198c-4 28-6 60-6 94 0 99 12 219 62 296zm25-337c0-116 59-196 159-196 95 0 154 72 154 197 0 121-60 195-156 195s-157-75-157-196z"/><glyph glyph-name="afii10067" unicode="в" horiz-adv-x="537" d="M62 0v516h239c90 0 177-20 177-125 0-55-28-89-76-111v-1c60-12 98-58 98-127C500 64 435 0 343 0H62zm230 308c73 0 98 25 98 69 0 43-23 66-98 66H145V308h147zm-147-72V73h182c54 0 85 37 85 86 0 47-30 77-100 77H145z"/><glyph glyph-name="afii10068" unicode="г" horiz-adv-x="420" d="M420 441H151V0H66v516h354v-75z"/><glyph glyph-name="afii10069" unicode="д" horiz-adv-x="574" d="M564-164h-81V0H89v-164H8V75h56c30 57 65 201 65 331v110h368V75h67v-239zM412 75v366H212v-43c0-129-32-268-60-323h260z"/><glyph glyph-name="afii10070" unicode="е" horiz-adv-x="537" d="M505 163C479 44 402-17 280-17 128-17 37 83 37 251c0 167 97 280 240 280 170 0 234-135 234-284v-12H123l-1-6c0-110 61-176 161-176 74 0 115 32 139 110h83zm-82 141c-8 98-63 157-148 157-83 0-141-60-152-157h300z"/><glyph glyph-name="afii10072" unicode="ж" horiz-adv-x="778" d="M282 250L105 0H0l226 304L29 516h105l210-237h2v237h85V279h2l210 237h105L551 304 777 0H672L495 250l-64-65V0h-85v185z"/><glyph glyph-name="afii10073" unicode="з" horiz-adv-x="500" d="M35 367c8 127 114 164 218 164 106 0 194-43 194-139 0-59-41-100-83-109v-2c48-9 100-48 100-128C464 41 359-16 250-16 115-16 32 49 26 161h86c5-74 61-108 137-108 81 0 127 45 127 98 0 52-31 84-110 84h-71v69h57c60 0 109 23 109 84 0 38-39 74-109 74-61 0-124-25-131-95H35z"/><glyph glyph-name="afii10074" unicode="и" d="M173 0H64v516h85V95h2l232 421h109V0h-85v421h-2z"/><glyph glyph-name="afii10075" unicode="й" d="M429 712c-13-80-63-138-150-138-83 0-142 58-152 138h51c14-48 49-78 100-78 52 0 84 30 100 78h51zM173 0H64v516h85V95h2l232 421h109V0h-85v421h-2z"/><glyph glyph-name="afii10076" unicode="к" horiz-adv-x="519" d="M526 0H418L230 254l-81-79V0H64v516h85V270l236 246h114L291 313z"/><glyph glyph-name="afii10077" unicode="л" d="M494 516V0h-85v441H225l-7-228C213 44 147-11 75-11 50-11 25-5 14 0v69c11-6 34-7 45-7 34 0 72 30 75 142l9 312h351z"/><glyph glyph-name="afii10078" unicode="м" horiz-adv-x="685" d="M623 0h-85v407h-3L382 0h-78L151 407h-3V0H63v516h122L342 98h2l157 418h122V0z"/><glyph glyph-name="afii10079" unicode="н" d="M149 0H64v516h85V311h258v205h85V0h-85v236H149V0z"/><glyph glyph-name="afii10080" unicode="о" horiz-adv-x="574" d="M290 531c156 0 247-99 247-270 0-175-91-277-248-277C131-16 37 86 37 256s97 275 253 275zm-2-71c-100 0-163-79-163-202 0-127 61-202 165-202 100 0 160 76 160 203 0 123-62 201-162 201z"/><glyph glyph-name="afii10081" unicode="п" d="M149 0H64v516h428V0h-85v441H149V0z"/><glyph glyph-name="afii10082" unicode="р" horiz-adv-x="593" d="M144 516v-73c40 64 98 89 174 89 144 0 235-104 235-271S463-13 322-13c-76 0-129 25-173 85v-271H64v715h80zm161-55c-99 0-159-76-159-201S208 59 308 59c97 0 157 77 157 201 0 125-60 201-160 201z"/><glyph glyph-name="afii10083" unicode="с" horiz-adv-x="537" d="M508 188C493 65 411-15 283-15 123-15 38 94 38 251c0 172 96 280 248 280 126 0 205-66 219-183h-88c-15 73-60 112-130 112-98 0-160-78-160-202 0-126 58-202 154-202 77 0 128 47 141 132h86z"/><glyph glyph-name="afii10084" unicode="т" horiz-adv-x="463" d="M459 441H274V0h-85v441H4v75h455v-75z"/><glyph glyph-name="afii10085" unicode="у" horiz-adv-x="500" d="M491 516L270-66c-28-73-57-142-149-142-22 0-42 4-63 9v76c27-8 40-11 55-11 28 0 50 19 60 43l40 94L8 516h96l153-411 145 411h89z"/><glyph glyph-name="afii10086" unicode="ф" horiz-adv-x="800" d="M760 266c0-144-54-278-208-278-38 0-88 26-108 51h-2v-238h-84V39h-2c-20-25-70-51-108-51C94-12 40 122 40 266c0 163 78 263 201 263 44 0 95-29 114-56h3v239h84V473h3c19 27 70 56 114 56 123 0 201-100 201-263zm-88-2c0 113-37 194-125 194-37 0-89-17-105-72V126c7-37 48-67 100-67 103 0 130 110 130 205zM358 126v260c-16 55-68 72-105 72-88 0-125-81-125-194 0-95 27-205 130-205 52 0 93 30 100 67z"/><glyph glyph-name="afii10087" unicode="х" horiz-adv-x="518" d="M488 516L308 278 509 0H400L255 212 112 0H9l194 272L24 516h108l125-177 128 177h103z"/><glyph glyph-name="afii10088" unicode="ц" horiz-adv-x="570" d="M474-164V0H64v516h85V75h254v441h85V75h67v-239h-81z"/><glyph glyph-name="afii10089" unicode="ч" horiz-adv-x="527" d="M463 0h-85v228c-18-5-108-23-160-23-103 0-168 48-168 148v163h85V367c0-66 36-90 99-90 50 0 125 17 144 23v216h85V0z"/><glyph glyph-name="afii10090" unicode="ш" horiz-adv-x="809" d="M64 0v516h85V75h213v441h85V75h213v441h85V0H64z"/><glyph glyph-name="afii10091" unicode="щ" horiz-adv-x="824" d="M64 0v516h85V75h213v441h85V75h213v441h85V75h67v-239h-81V0H64z"/><glyph glyph-name="afii10092" unicode="ъ" horiz-adv-x="611" d="M589 161C589 64 526 0 425 0H152v441H3v75h234V319h184c101 0 168-60 168-158zm-88 0c0 55-36 85-107 85H237V75h157c70 0 107 31 107 86z"/><glyph glyph-name="afii10093" unicode="ы" horiz-adv-x="704" d="M556 516h85V0h-85v516zm-82-355C474 64 411 0 310 0H61v516h85V319h160c101 0 168-60 168-158zm-195 85H146V75h133c70 0 107 31 107 86s-36 85-107 85z"/><glyph glyph-name="afii10094" unicode="ь" horiz-adv-x="519" d="M498 161C498 64 435 0 334 0H61v516h85V319h184c101 0 168-60 168-158zm-195 85H146V75h157c70 0 107 31 107 86s-36 85-107 85z"/><glyph glyph-name="afii10095" unicode="э" horiz-adv-x="537" d="M499 251c0-157-85-266-245-266C130-15 49 60 31 176h86c16-77 66-120 139-120 90 0 147 67 153 179H193v69h214c-14 97-72 156-157 156-64 0-107-33-125-94H35c19 106 97 165 216 165 152 0 248-108 248-280z"/><glyph glyph-name="afii10096" unicode="ю" horiz-adv-x="766" d="M492 531c150 0 237-99 237-270 0-175-87-277-238-277-146 0-235 94-242 252H149V0H64v516h85V311h104c18 137 106 220 239 220zm-2-71c-94 0-153-79-153-202 0-127 57-202 155-202 94 0 150 76 150 203 0 123-58 201-152 201z"/><glyph glyph-name="currency" unicode="¤" d="M46 164l64 64c-28 36-43 80-43 128 0 49 11 89 43 128l-64 64 40 40 64-64c37 29 82 43 129 43 46 0 82-12 127-43l64 64 40-40-64-64c29-34 43-84 43-128 0-50-14-87-43-127l64-65-40-40-65 64c-24-23-79-43-127-43-45 0-90 15-127 43l-65-64zm232 342c-83 0-150-67-150-150s67-151 150-151 151 68 151 151-68 150-151 150z"/><glyph glyph-name="hyphenminus" unicode="" horiz-adv-x="389" d="M340 320v-84H49v84h291z"/><glyph glyph-name="quotesinglbase" unicode="‚" horiz-adv-x="278" d="M191 103V22c0-77-28-145-108-168v48c44 19 53 54 55 98H83v103h108z"/><glyph glyph-name="daggerdbl" unicode="‡" d="M514 513v-74H317V116h197V42H317v-197h-81V42H42v74h194v323H42v74h194v199h81V513h197z"/><glyph glyph-name="perthousand" unicode="‰" horiz-adv-x="1148" d="M658 731L187-35h-63l474 766h60zm-427-22c95 0 146-58 146-167 0-110-53-172-148-172S84 428 84 539c0 110 52 170 147 170zm-1-54c-48 0-73-41-73-119 0-75 24-111 73-111 48 0 73 39 73 113 0 78-25 117-73 117zm342-327c95 0 146-58 146-167 0-110-53-172-148-172S425 47 425 158c0 110 52 170 147 170zm-1-54c-48 0-73-41-73-119 0-75 24-111 73-111 48 0 73 39 73 113 0 78-25 117-73 117zm347 54c95 0 146-58 146-167 0-110-53-172-148-172S771 47 771 158c0 110 52 170 147 170zm-1-54c-48 0-73-41-73-119 0-75 24-111 73-111 48 0 73 39 73 113 0 78-25 117-73 117z"/><glyph glyph-name="guilsinglleft" unicode="‹" horiz-adv-x="259" d="M194 426v-86L93 265l101-79v-86L42 221v87z"/><glyph glyph-name="guilsinglright" unicode="›" horiz-adv-x="259" d="M65 427l152-120v-88L65 102v86l101 75-101 78v86z"/><glyph glyph-name="brokenbar" unicode="¦" horiz-adv-x="222" d="M78-89v250h66V-89H78zm0 500v250h66V411H78z"/><glyph glyph-name="periodcentered" unicode="·" horiz-adv-x="278" d="M194 348V237H83v111h111z"/><glyph glyph-name="space" horiz-adv-x="278"/></font>
</defs>
</svg>
