<svg xmlns="http://www.w3.org/2000/svg"><defs><font id="HelveticaNeueCyr-Bold" horiz-adv-x="556"><font-face font-family="HelveticaNeueCyr" font-weight="700" panose-1="2 0 8 3 5 0 0 2 0 4" ascent="800" descent="-200" x-height="516" cap-height="712" bbox="-48 -214 1088 904" underline-thickness="50" underline-position="-100" stemh="107" stemv="142" unicode-range="U+0020-E001"/><glyph glyph-name=".notdef" horiz-adv-x="1000"/><glyph glyph-name="exclam" unicode="!" horiz-adv-x="278" d="M213 712V522l-39-305h-71L64 520v192h149zm3-559V0H61v153h155z"/><glyph glyph-name="quotedbl" unicode="&quot;" horiz-adv-x="463" d="M178 401h-69L90 694h106zm176 0h-68l-19 293h106z"/><glyph glyph-name="numbersign" unicode="#" d="M157 0H55l37 192H3v84h105l26 141H46v85h104l37 192h102l-37-192h109l37 192h102l-37-192h89v-85H447l-26-141h88v-84H405L368 0H266l37 192H193zm162 276l26 141H236l-26-141h109z"/><glyph glyph-name="dollar" unicode="$" d="M304 789v-76c143-3 230-76 230-194v-14H401v7c0 65-36 93-97 100V419l6-1c122-20 246-68 246-214C556 73 455-15 304-17v-84h-54v84C106-15-6 63-6 217l1 6h142v-9c0-76 38-117 113-123v213C133 324 16 367 16 506c0 141 109 198 234 207v76h54zm-54-358v180c-64-3-102-37-102-89 0-64 52-77 102-91zm54-139V90c67 2 111 43 111 103 0 53-35 84-111 99z"/><glyph glyph-name="percent" unicode="%" horiz-adv-x="1000" d="M737 720L344-27h-89l394 747h88zm-491-14c108 0 167-67 167-189 0-130-59-200-166-200-109 0-169 69-169 195 0 124 61 194 168 194zm-1-73c-45 0-65-39-65-126 0-84 18-118 64-118 47 0 66 38 66 128 0 47-2 116-65 116zm515-258c108 0 167-67 167-189 0-130-59-200-166-200-109 0-169 69-169 195 0 124 61 194 168 194zm-1-73c-45 0-65-39-65-126 0-84 18-118 64-118 47 0 66 38 66 128 0 47-2 116-65 116z"/><glyph glyph-name="ampersand" unicode="&amp;" horiz-adv-x="685" d="M621 344c-7-64-29-127-68-175L698 0H525l-59 70c-51-55-125-85-199-85C143-15 34 61 34 195c0 101 74 173 161 211-47 57-67 100-67 148 0 97 81 167 192 167 107 0 185-72 185-169 0-75-43-137-124-180l92-112c15 26 21 53 26 84h122zM311 456c53 32 74 60 74 99 0 38-27 66-65 66s-66-27-66-62c0-37 33-76 57-103zm-43-142c-66-34-96-69-96-115 0-53 45-96 101-96 43 0 81 20 118 62z"/><glyph glyph-name="quotesingle" unicode="'" horiz-adv-x="278" d="M172 401h-66L85 694h108z"/><glyph glyph-name="parenleft" unicode="(" horiz-adv-x="296" d="M302 723c-76-152-111-283-111-455 0-159 42-304 113-446H184C100-52 53 113 53 265c0 153 43 330 131 458h118z"/><glyph glyph-name="parenright" unicode=")" horiz-adv-x="296" d="M-4 723h118c86-132 133-288 133-445 0-140-45-342-131-456H-3C75-19 108 104 108 280c0 152-38 310-112 443z"/><glyph glyph-name="asterisk" unicode="*" horiz-adv-x="407" d="M386 564l-118-39 73-98-66-49-73 103-71-103-67 49 74 98-116 39 26 77 116-44-3 125h84l-4-125 116 44z"/><glyph glyph-name="plus" unicode="+" horiz-adv-x="600" d="M246 0v209H40v101h206v209h108V310h206V209H354V0H246z"/><glyph glyph-name="comma" unicode="," horiz-adv-x="278" d="M218 156V29c0-116-50-178-158-195v70c47 14 68 43 71 96H60v156h158z"/><glyph glyph-name="hyphen" unicode="-" horiz-adv-x="407" d="M354 336V209H53v127h301z"/><glyph glyph-name="period" unicode="." horiz-adv-x="278" d="M218 156V0H60v156h158z"/><glyph glyph-name="slash" unicode="/" horiz-adv-x="371" d="M260 729h122L110-17H-13z"/><glyph glyph-name="zero" unicode="0" d="M279 704c201 0 256-194 256-359 0-222-96-357-255-357C118-12 21 121 21 345c0 165 59 359 258 359zm-1-117c-117 0-117-166-117-249 0-159 38-235 118-235 78 0 116 79 116 242 0 167-36 242-117 242z"/><glyph glyph-name="one" unicode="1" d="M396 700V0H245v455H75v105h18c98 0 166 38 186 140h117z"/><glyph glyph-name="two" unicode="2" d="M528 123V0H15c3 162 89 223 215 308 62 42 151 87 151 173 0 61-40 101-100 101-74 0-110-49-114-152H31v15c0 159 99 260 255 260 141 0 238-87 238-214 0-113-62-163-145-220-60-41-142-88-182-148h331z"/><glyph glyph-name="three" unicode="3" d="M32 471c5 144 94 234 242 234 138 0 233-78 233-192 0-68-38-122-98-138 78-19 124-79 124-161C533 81 426-13 273-13 114-13 14 81 14 231v10h137c1-86 43-134 119-134 70 0 116 43 116 106 0 78-60 104-127 104-15 0-21 0-35-1v100c11-1 15-1 24-1 82 0 122 29 122 88 0 53-39 88-97 88-66 0-104-42-106-120H32z"/><glyph glyph-name="four" unicode="4" d="M539 279V161h-94V0H313v161H13v131l304 410h128V279h94zm-226 0v260L127 279h186z"/><glyph glyph-name="five" unicode="5" d="M492 694V573H205l-27-152c34 34 73 49 129 49 134 0 223-91 223-229C530 94 420-11 266-11 124-11 19 64 11 207h140c6-61 52-103 115-103 71 0 121 55 121 134s-48 129-122 129c-47 0-78-17-105-58H33l68 385h391z"/><glyph glyph-name="six" unicode="6" d="M524 518H389c-13 52-44 79-94 79-78 0-122-67-133-208 38 52 91 79 156 79 128 0 219-96 219-231C538 92 433-12 288-12 122-12 24 117 24 335c0 230 103 370 273 370 126 0 210-68 227-187zM285 362c-64 0-110-55-110-130 0-76 46-129 111-129s113 55 113 130-48 129-114 129z"/><glyph glyph-name="seven" unicode="7" d="M515 694V577C356 403 297 235 284 0H137c0 166 111 441 234 566H37v128h478z"/><glyph glyph-name="eight" unicode="8" d="M146 372C80 394 43 446 43 517c0 109 100 189 235 189 136 0 235-80 235-189 0-71-36-123-102-145 82-20 131-84 131-171C542 73 437-12 278-12S15 73 15 201c0 87 49 151 131 171zm132 227c-63 0-105-36-105-91 0-57 42-94 106-94 65 0 106 37 106 94s-41 91-107 91zm-3-278c-69 0-118-46-118-111 0-68 49-114 121-114 73 0 122 45 122 113 0 67-50 112-125 112z"/><glyph glyph-name="nine" unicode="9" d="M29 176h135c11-53 44-80 96-80 104 0 122 128 129 210-38-54-81-81-150-81-129 0-222 97-222 231 0 143 108 250 252 250 195 0 261-175 261-341 0-169-65-377-270-377C132-12 43 61 29 176zm237 413c-63 0-110-55-110-128 0-74 46-128 111-128 64 0 111 54 111 127 0 74-48 129-112 129z"/><glyph glyph-name="colon" unicode=":" horiz-adv-x="278" d="M218 509V353H60v156h158zm0-353V0H60v156h158z"/><glyph glyph-name="semicolon" unicode=";" horiz-adv-x="278" d="M219 156V29c0-116-50-178-158-195v70c47 14 68 43 71 96H61v156h158zm-2 353V353H59v156h158z"/><glyph glyph-name="less" unicode="&lt;" horiz-adv-x="600" d="M40 207v105l520 200V390L198 260l362-130V6z"/><glyph glyph-name="equal" unicode="=" horiz-adv-x="600" d="M40 308v112h520V308H40zm0-209v112h520V99H40z"/><glyph glyph-name="greater" unicode="&gt;" horiz-adv-x="600" d="M560 207L40 6v124l362 130L40 390v122l520-200V207z"/><glyph glyph-name="question" unicode="?" d="M31 482c9 149 92 245 252 245 142 0 237-82 237-205 0-83-49-135-113-179-58-40-70-59-70-129H204c0 82 3 127 69 184 42 36 94 65 94 127 0 48-34 80-86 80-79 0-102-55-104-123H31zm316-329V0H192v153h155z"/><glyph glyph-name="at" unicode="@" horiz-adv-x="800" d="M694 130l29-40C619 14 529-17 417-17c-110 0-203 33-274 99C70 149 30 244 30 346c0 216 175 383 402 383 198 0 338-124 338-300 0-139-97-263-206-263-52 0-85 28-85 73 0 7 0 12 2 20-28-54-74-93-138-93-81 0-136 62-136 153 0 130 94 242 201 242 53 0 91-19 113-68l14 52h85l-65-223c-7-25-10-41-10-54 0-25 15-40 41-40 65 0 128 102 128 206 0 144-114 243-281 243-199 0-347-142-347-334C86 162 224 34 420 34c99 0 182 29 274 96zM490 434c0 37-22 66-61 66-77 0-122-125-122-186 0-54 23-86 63-86 77 0 120 147 120 206z"/><glyph glyph-name="A" unicode="A" horiz-adv-x="685" d="M423 713L694 0H530l-56 159H209L151 0H-9l271 713h161zm13-440l-94 265-95-265h189z"/><glyph glyph-name="B" unicode="B" horiz-adv-x="704" d="M68 712h337c125 0 227-53 227-179 0-69-39-121-97-147 74-21 130-75 130-174C665 73 558 0 424 0H68v712zm152-121V424h142c57 0 118 11 118 83s-58 84-118 84H220zm0-273V124h157c67 0 132 13 132 97 0 86-70 97-140 97H220z"/><glyph glyph-name="C" unicode="C" horiz-adv-x="741" d="M705 275C689 101 581-17 386-17 179-17 42 132 42 357c0 207 132 372 350 372 171 0 296-108 308-255H547c-16 78-74 124-158 124-137 0-190-123-190-242 0-147 73-241 188-241 94 0 150 56 163 160h155z"/><glyph glyph-name="D" unicode="D" horiz-adv-x="741" d="M70 0v712h288c221 0 345-126 345-356C703 127 579 0 358 0H70zm155 130h114c143 0 207 83 207 226s-66 226-207 226H225V130z"/><glyph glyph-name="E" unicode="E" horiz-adv-x="648" d="M603 712V584H224V429h348V306H224V131h386V0H69v712h534z"/><glyph glyph-name="F" unicode="F" horiz-adv-x="593" d="M571 712V581H225V416h301V292H225V0H69v712h502z"/><glyph glyph-name="G" unicode="G" horiz-adv-x="759" d="M703 385V0h-99l-15 81c-55-67-122-98-214-98C177-17 40 134 40 353c0 220 144 374 350 374 162 0 285-99 304-249H543c-15 75-72 118-155 118-119 0-191-91-191-243 0-155 72-245 196-245 98 0 166 65 170 161H404v116h299z"/><glyph glyph-name="H" unicode="H" horiz-adv-x="741" d="M672 712V0H516v307H225V0H69v712h156V444h291v268h156z"/><glyph glyph-name="I" unicode="I" horiz-adv-x="295" d="M226 712V0H69v712h157z"/><glyph glyph-name="J" unicode="J" d="M498 712V223c0-156-77-240-234-240C118-17 26 57 26 219v47h144v-22c0-66 0-135 89-135 78 0 83 56 83 119v484h156z"/><glyph glyph-name="K" unicode="K" horiz-adv-x="722" d="M702 712L423 431 728 0H532L316 320l-91-90V0H71v712h154V416l280 296h197z"/><glyph glyph-name="L" unicode="L" horiz-adv-x="593" d="M573 134V0H69v712h156V134h348z"/><glyph glyph-name="M" unicode="M" horiz-adv-x="907" d="M69 0v712h223l166-489 162 489h218V0H691v506L516 0H395L218 501V0H69z"/><glyph glyph-name="N" unicode="N" horiz-adv-x="741" d="M69 0v712h159l293-477v477h150V0H515L220 478V0H69z"/><glyph glyph-name="O" unicode="O" horiz-adv-x="778" d="M391 729c208 0 349-151 349-374 0-222-141-372-350-372C179-17 38 132 38 355c0 226 140 374 353 374zm-2-128c-118 0-193-95-193-243 0-153 74-245 195-246 118 0 191 94 191 246 0 150-74 243-193 243z"/><glyph glyph-name="P" unicode="P" horiz-adv-x="667" d="M70 712h307c154 0 261-72 261-229 0-155-110-227-253-227H225V0H70v712zm155-128V379h139c70 0 122 23 122 102 0 76-52 103-121 103H225z"/><glyph glyph-name="Q" unicode="Q" horiz-adv-x="778" d="M734 8l-73-79-105 95C512-4 451-17 384-17 178-17 38 131 38 354c0 220 145 374 353 374 204 0 347-153 347-370 0-111-35-209-96-266zM534 192c31 37 48 94 48 165 0 149-74 242-194 242-118 0-193-95-193-244 0-150 75-247 192-247 27 0 45 4 68 14l-71 62 73 78z"/><glyph glyph-name="R" unicode="R" horiz-adv-x="722" d="M75 712h354c131 0 240-59 240-202 0-83-42-148-113-175 79-16 99-96 105-166 4-45 6-143 34-169H533c-18 36-18 107-22 146-10 98-40 133-142 133H230V0H75v712zm155-123V392h148c73 0 138 13 138 101 0 82-65 96-131 96H230z"/><glyph glyph-name="S" unicode="S" horiz-adv-x="649" d="M596 500H448c-6 69-52 106-135 106-72 0-115-30-115-81 0-62 76-67 218-107 127-36 208-85 208-204C624 46 476-16 331-16 138-16 24 77 22 238h155c3-96 66-134 161-134 82 0 132 36 132 95 0 56-48 66-195 108-116 33-227 62-227 207 0 129 108 213 274 213 150 0 271-68 274-227z"/><glyph glyph-name="T" unicode="T" horiz-adv-x="611" d="M598 712V579H384V0H227v579H13v133h585z"/><glyph glyph-name="U" unicode="U" horiz-adv-x="741" d="M675 712V284c0-203-95-298-303-298C160-14 65 83 65 286v426h156V286c0-109 31-171 153-171 120 0 145 66 145 171v426h156z"/><glyph glyph-name="V" unicode="V" horiz-adv-x="630" d="M-8 712h163l160-500 162 500h162L402 0H225z"/><glyph glyph-name="W" unicode="W" horiz-adv-x="944" d="M3 712h157l114-484 125 484h147l123-490 118 490h154L749 0H593L471 486 351 0H192z"/><glyph glyph-name="X" unicode="X" horiz-adv-x="667" d="M651 712L422 372 672 0H485L329 247 171 0H-7l251 372L12 712h182l142-229 143 229h172z"/><glyph glyph-name="Y" unicode="Y" horiz-adv-x="667" d="M676 712L411 274V0H257v277L-9 712h178l166-285 168 285h173z"/><glyph glyph-name="Z" unicode="Z" horiz-adv-x="648" d="M610 712V593L224 134h399V0H20v127l383 452H47v133h563z"/><glyph glyph-name="bracketleft" unicode="[" horiz-adv-x="333" d="M329 717V608H201V-63h128v-109H70v889h259z"/><glyph glyph-name="backslash" unicode="\" horiz-adv-x="371" d="M113 729L386-17H263L-9 729h122z"/><glyph glyph-name="bracketright" unicode="]" horiz-adv-x="333" d="M4 717h259v-889H4v109h128v671H4v109z"/><glyph glyph-name="asciicircum" unicode="^" horiz-adv-x="600" d="M67 268l176 426h114l176-426H414L297 556 186 268H67z"/><glyph glyph-name="underscore" unicode="_" horiz-adv-x="500" d="M0-125v50h500v-50H0z"/><glyph glyph-name="grave" unicode="`" horiz-adv-x="259" d="M111 722l94-143H104L-48 722h159z"/><glyph glyph-name="a" unicode="a" horiz-adv-x="574" d="M534 0H390c-7 19-8 27-10 50-44-44-105-65-167-65C99-15 29 44 29 141c0 135 123 151 225 164 92 12 126 20 126 62 0 47-30 69-93 69-65 0-92-20-102-79H52c8 115 90 174 239 174 104 0 225-24 225-168V140c0-47-1-96 18-140zM379 251c-33-19-64-21-100-27-49-8-104-14-104-77 0-43 29-69 78-69 74 0 126 41 126 115v58z"/><glyph glyph-name="b" unicode="b" horiz-adv-x="611" d="M194 712V453c41 51 97 75 163 75 142 0 221-118 221-265 0-165-93-277-229-277-67 0-124 24-162 79l1-65H53v712h141zm119-293c-76 0-124-61-124-158 0-100 47-161 124-161 74 0 122 64 122 162 0 95-48 157-122 157z"/><glyph glyph-name="c" unicode="c" horiz-adv-x="574" d="M546 199C528 65 436-13 299-13 140-13 36 93 36 254c0 167 105 277 265 277 138 0 230-75 242-195H404c-10 57-47 89-102 89-77 0-123-62-123-168 0-103 44-162 120-162 61 0 99 36 110 104h137z"/><glyph glyph-name="d" unicode="d" horiz-adv-x="611" d="M557 0H423v66c-34-53-85-80-156-80C124-14 33 93 33 260c0 163 89 270 226 270 61 0 124-25 157-78v260h141V0zM421 259c0 100-46 159-123 159s-122-59-122-158c0-100 46-160 122-160 78 0 123 58 123 159z"/><glyph glyph-name="e" unicode="e" horiz-adv-x="574" d="M539 160C507 48 414-15 297-15 138-15 33 93 33 255c0 160 109 276 259 276 156 0 255-114 255-295v-14H177c2-89 45-137 121-137 52 0 84 23 105 75h136zM403 312c-6 63-40 116-111 116-63 0-107-44-115-116h226z"/><glyph glyph-name="f" unicode="f" horiz-adv-x="333" d="M335 712V608c-22 1-32 2-47 2-51 0-63-10-63-53v-41h101v-96H226V0H84v420H0v96h84v27c0 119 48 172 177 172 25 0 49-2 74-3z"/><glyph glyph-name="g" unicode="g" horiz-adv-x="611" d="M549 516V54c0-172-86-246-254-246-149 0-228 53-242 161h141c11-46 42-66 104-66 95 0 113 51 114 134l1 58c-39-54-90-80-158-80-134 0-220 99-220 254 0 157 90 261 226 261 72 0 116-25 154-83v69h134zm-255-96c-75 0-119-56-119-150 0-91 46-149 120-149 73 0 119 58 119 152 0 92-45 147-120 147z"/><glyph glyph-name="h" unicode="h" horiz-adv-x="593" d="M195 712V447c41 55 92 82 163 82 126 0 181-71 181-191V0H397v304c0 63-15 109-91 109-94 0-111-74-111-150V0H55v712h140z"/><glyph glyph-name="i" unicode="i" horiz-adv-x="258" d="M200 712V592H58v120h142zm0-196V0H58v516h142z"/><glyph glyph-name="j" unicode="j" horiz-adv-x="278" d="M210 516V-1c0-131-36-186-172-186-17 0-28 0-57 2v114c12-1 17-1 26-1 60 0 61 24 61 75v513h142zm0 196V590H68v122h142z"/><glyph glyph-name="k" unicode="k" horiz-adv-x="574" d="M555 516L361 325 578 0H406L264 229l-58-54V0H67v712h139V331l182 185h167z"/><glyph glyph-name="l" unicode="l" horiz-adv-x="258" d="M200 712V0H58v712h142z"/><glyph glyph-name="m" unicode="m" horiz-adv-x="906" d="M849 0H705v308c0 57-9 106-82 106-74 0-99-54-99-124V0H382v314c0 55-11 101-78 101-82 0-103-65-103-135V0H59v516h135v-71c40 56 91 85 164 85 68 0 120-28 146-85 41 56 96 85 169 85 116 0 176-73 176-183V0z"/><glyph glyph-name="n" unicode="n" horiz-adv-x="593" d="M540 0H396v301c0 64-12 112-88 112-85 0-112-61-112-136V0H55v516h135v-72c41 55 98 86 171 86 109 0 179-65 179-185V0z"/><glyph glyph-name="o" unicode="o" horiz-adv-x="611" d="M308 531c159 0 264-109 264-273C572 92 467-16 306-16S39 93 39 258c0 164 107 273 269 273zm-4-108c-76 0-123-62-123-165 0-106 46-167 125-167 78 0 124 62 124 168 0 103-47 164-126 164z"/><glyph glyph-name="p" unicode="p" horiz-adv-x="611" d="M188 516v-64c38 53 94 78 160 78 139 0 230-109 230-275 0-162-89-268-224-268-65 0-121 24-159 77v-247H54v699h134zm125-100c-77 0-123-59-123-159S236 98 314 98c76 0 122 59 122 157 0 101-47 161-123 161z"/><glyph glyph-name="q" unicode="q" horiz-adv-x="611" d="M558 516v-699H417V65c-39-53-93-78-159-78C121-13 33 92 33 255c0 167 91 275 231 275 67 0 122-22 159-78v64h135zm-263-99c-74 0-119-62-119-163 0-98 45-156 122-156s123 59 123 161c0 100-46 158-126 158z"/><glyph glyph-name="r" unicode="r" horiz-adv-x="389" d="M389 525V394c-25 5-39 6-55 6-98 0-136-70-136-164V0H56v516h135v-95c32 67 90 107 167 107 11 0 17-1 31-3z"/><glyph glyph-name="s" unicode="s" horiz-adv-x="537" d="M490 366H358c-8 54-41 71-98 71-50 0-80-19-80-51 0-43 44-49 126-66 93-19 201-43 201-160 0-108-89-175-236-175C142-15 31 36 29 168h135c5-62 45-86 110-86 58 0 94 25 94 64 0 44-42 52-116 69-92 21-212 35-212 158 0 101 82 158 226 158 118 0 220-45 224-165z"/><glyph glyph-name="t" unicode="t" horiz-adv-x="352" d="M338 516v-96H233V177c0-50 1-73 62-73 15 0 26 0 43 2V-2c-39-3-54-4-86-4C130-6 92 26 92 152v268H6v96h86v156h141V516h105z"/><glyph glyph-name="u" unicode="u" horiz-adv-x="593" d="M538 516V0H403v73c-39-57-94-88-168-88C124-15 55 46 55 169v347h143V221c0-65 6-117 87-117 89 0 112 68 112 146v266h141z"/><glyph glyph-name="v" unicode="v" horiz-adv-x="520" d="M375 516h141L341 0H182L5 516h150l110-352z"/><glyph glyph-name="w" unicode="w" horiz-adv-x="814" d="M5 516h151l96-351 87 351h137l90-349 96 349h145L644 0H498l-92 347L317 0H170z"/><glyph glyph-name="x" unicode="x" horiz-adv-x="537" d="M517 516L347 275 538 0H376L267 167 159 0H-2l188 272L15 516h162l92-138 91 138h157z"/><glyph glyph-name="y" unicode="y" horiz-adv-x="519" d="M523 516L333 2c-42-114-66-186-197-186-44 0-26 0-95 1v117h69c47 0 72 26 72 69 0 5-2 14-4 20L-9 516h153l118-351 114 351h147z"/><glyph glyph-name="z" unicode="z" horiz-adv-x="519" d="M479 516V413L207 112h290V0H22v108l273 299H43v109h436z"/><glyph glyph-name="braceleft" unicode="{" horiz-adv-x="333" d="M330-171c-171 8-230 65-230 231v36c0 95-4 134-101 145v64c82 9 101 45 101 126v54c0 167 59 223 230 233v-64c-82-8-99-48-99-138v-57c0-111-36-171-149-186 119-11 149-86 149-186V29c0-82 11-129 99-137v-63z"/><glyph glyph-name="bar" unicode="|" horiz-adv-x="223" d="M51-214V786h121V-214H51z"/><glyph glyph-name="braceright" unicode="}" horiz-adv-x="333" d="M330 241c-97-11-101-50-101-145V60c0-166-59-223-230-231v63c88 8 99 55 99 137v58c0 100 30 175 149 186-113 15-149 75-149 186v57c0 90-17 130-99 138v64c171-10 230-66 230-233v-54c0-81 19-117 101-126v-64z"/><glyph glyph-name="asciitilde" unicode="~" horiz-adv-x="600" d="M422 171c-61 0-150 38-211 59-19 6-32 10-45 10-38 0-56-39-61-70H27c8 83 45 178 150 178 46 0 91-20 135-34 33-11 90-33 125-33 40 0 54 34 60 67h78c-10-90-46-177-153-177z"/><glyph glyph-name="afii10017" unicode="А" horiz-adv-x="685" d="M423 713L694 0H530l-56 159H209L151 0H-9l271 713h161zm13-440l-94 265-95-265h189z"/><glyph glyph-name="afii10018" unicode="Б" horiz-adv-x="704" d="M226 456h186c143 0 253-72 253-227C665 72 558 0 404 0H71v712h528V583H226V456zm287-225c0 75-52 102-122 102H226V128h166c75 0 121 27 121 103z"/><glyph glyph-name="afii10019" unicode="В" horiz-adv-x="704" d="M68 712h337c125 0 227-53 227-179 0-69-39-121-97-147 74-21 130-75 130-174C665 73 558 0 424 0H68v712zm152-121V424h142c57 0 118 11 118 83s-58 84-118 84H220zm0-273V124h157c67 0 132 13 132 97 0 86-70 97-140 97H220z"/><glyph glyph-name="afii10020" unicode="Г" horiz-adv-x="574" d="M565 712V579H225V0H69v712h496z"/><glyph glyph-name="afii10021" unicode="Д" horiz-adv-x="778" d="M762-183H611V0H159v-183H8v316h54c84 112 114 261 114 471v108h507V133h79v-316zM527 133v452H331v-12c0-195-32-325-95-440h291z"/><glyph glyph-name="afii10022" unicode="Е" horiz-adv-x="648" d="M603 712V584H224V429h348V306H224V131h386V0H69v712h534z"/><glyph glyph-name="afii10024" unicode="Ж" horiz-adv-x="1054" d="M375 310L184 0H-9l285 421L17 712h188l247-291v291h150V421l247 291h188L778 421 1063 0H869L679 310l-77-87V0H452v223z"/><glyph glyph-name="afii10025" unicode="З" horiz-adv-x="649" d="M610 219C610 81 489-16 330-16 137-16 23 77 21 238h155c3-96 70-134 154-134 73 0 123 49 123 114 0 81-65 100-134 100h-54v106c12-1 33-1 42-1 86 0 129 35 129 97 0 55-43 86-107 86-77 0-126-37-132-106H49c3 159 131 227 281 227 144 0 253-78 253-197 0-71-44-129-108-143 77-12 135-77 135-168z"/><glyph glyph-name="afii10026" unicode="И" horiz-adv-x="741" d="M672 712V0H516v494h-3L245 0H69v712h156V219h3l268 493h176z"/><glyph glyph-name="afii10027" unicode="Й" horiz-adv-x="741" d="M672 712V0H516v494h-3L245 0H69v712h156V219h3l268 493h176zM478 904h56c0-103-66-144-163-144s-163 41-163 144h56c9-46 53-66 107-66s98 20 107 66z"/><glyph glyph-name="afii10028" unicode="К" horiz-adv-x="722" d="M702 712L423 431 728 0H532L316 320l-91-90V0H71v712h154V416l280 296h197z"/><glyph glyph-name="afii10029" unicode="Л" horiz-adv-x="722" d="M656 712V0H500v579H309l-10-302C292 75 223-14 101-14 73-14 34-9 13-2v126c12-6 35-12 55-12 42 0 76 21 80 167l12 433h496z"/><glyph glyph-name="afii10030" unicode="М" horiz-adv-x="907" d="M69 0v712h223l166-489 162 489h218V0H691v506L516 0H395L218 501V0H69z"/><glyph glyph-name="afii10031" unicode="Н" horiz-adv-x="741" d="M672 712V0H516v307H225V0H69v712h156V444h291v268h156z"/><glyph glyph-name="afii10032" unicode="О" horiz-adv-x="778" d="M391 729c208 0 349-151 349-374 0-222-141-372-350-372C179-17 38 132 38 355c0 226 140 374 353 374zm-2-128c-118 0-193-95-193-243 0-153 74-245 195-246 118 0 191 94 191 246 0 150-74 243-193 243z"/><glyph glyph-name="afii10033" unicode="П" horiz-adv-x="741" d="M672 712V0H516v579H225V0H69v712h603z"/><glyph glyph-name="afii10034" unicode="Р" horiz-adv-x="667" d="M70 712h307c154 0 261-72 261-229 0-155-110-227-253-227H225V0H70v712zm155-128V379h139c70 0 122 23 122 102 0 76-52 103-121 103H225z"/><glyph glyph-name="afii10035" unicode="С" horiz-adv-x="741" d="M705 275C689 101 581-17 386-17 179-17 42 132 42 357c0 207 132 372 350 372 171 0 296-108 308-255H547c-16 78-74 124-158 124-137 0-190-123-190-242 0-147 73-241 188-241 94 0 150 56 163 160h155z"/><glyph glyph-name="afii10036" unicode="Т" horiz-adv-x="611" d="M598 712V579H384V0H227v579H13v133h585z"/><glyph glyph-name="afii10037" unicode="У" horiz-adv-x="667" d="M102 3v132c19-8 46-16 75-16 48 0 72 29 72 61 0 31-19 63-33 92L7 712h173l161-375 158 375h167L426 188C360 43 304-13 189-13c-38 0-72 10-87 16z"/><glyph glyph-name="afii10038" unicode="Ф" horiz-adv-x="848" d="M810 364c0-179-126-279-309-286V0H347v78C164 85 38 185 38 364c0 172 123 272 309 278v70h154v-70c186-6 309-106 309-278zm-150 0c0 101-56 161-159 165V195c100 4 159 74 159 169zM347 195v334c-103-4-158-64-158-165 0-95 58-165 158-169z"/><glyph glyph-name="afii10039" unicode="Х" horiz-adv-x="667" d="M651 712L422 372 672 0H485L329 247 171 0H-7l251 372L12 712h182l142-229 143 229h172z"/><glyph glyph-name="afii10040" unicode="Ц" horiz-adv-x="757" d="M749-183H598V0H67v712h156V133h291v579h156V133h79v-316z"/><glyph glyph-name="afii10041" unicode="Ч" horiz-adv-x="667" d="M294 274c-160 0-255 66-255 249v189h156V521c0-86 31-117 111-117 43 0 118 12 141 16v292h156V0H447v294c-34-7-111-20-153-20z"/><glyph glyph-name="afii10042" unicode="Ш" horiz-adv-x="1075" d="M67 0v712h156V133h237v579h156V133h237v579h156V0H67z"/><glyph glyph-name="afii10043" unicode="Щ" horiz-adv-x="1092" d="M1088-183H937V0H67v712h156V133h237v579h156V133h237v579h156V133h79v-316z"/><glyph glyph-name="afii10044" unicode="Ъ" horiz-adv-x="806" d="M206 578H13v134h348V456h168c143 0 253-72 253-227C782 72 675 0 521 0H206v578zm424-347c0 75-52 102-122 102H361V128h148c75 0 121 27 121 103z"/><glyph glyph-name="afii10045" unicode="Ы" horiz-adv-x="907" d="M607 229C607 72 500 0 346 0H69v712h155V456h130c143 0 253-72 253-227zm-152 2c0 75-52 102-122 102H224V128h110c75 0 121 27 121 103zm228 481h156V0H683v712z"/><glyph glyph-name="afii10046" unicode="Ь" horiz-adv-x="667" d="M643 229C643 72 536 0 382 0H67v712h155V456h168c143 0 253-72 253-227zm-152 2c0 75-52 102-122 102H222V128h148c75 0 121 27 121 103z"/><glyph glyph-name="afii10047" unicode="Э" horiz-adv-x="741" d="M698 357c0-225-137-374-344-374C168-17 61 90 38 251h156c18-89 73-136 159-136 102 0 171 74 185 194H277v123h256c-19 90-74 166-182 166-78 0-134-40-154-109H42c19 139 141 240 306 240 218 0 350-165 350-372z"/><glyph glyph-name="afii10048" unicode="Ю" horiz-adv-x="1018" d="M659 729c191 0 321-151 321-374 0-222-130-372-322-372-181 0-307 130-322 329H225V0H69v712h156V439h115c29 178 148 290 319 290zm-2-128c-101 0-165-95-165-243 0-153 63-245 167-246 101 0 163 94 163 246 0 150-63 243-165 243z"/><glyph glyph-name="afii10049" unicode="Я" horiz-adv-x="722" d="M407 279L199 0H3l221 288c-94 24-163 92-163 206 0 152 114 218 245 218h349V0H500v279h-93zm93 113v197H345c-66 0-131-14-131-96 0-88 65-101 138-101h148z"/><glyph glyph-name="dagger" unicode="†" d="M532 517V395H346v-559H208v559H24v122h184v195h138V517h186z"/><glyph glyph-name="degree" unicode="°" horiz-adv-x="400" d="M363 541c0-90-73-163-163-163S37 451 37 541s73 163 163 163 163-73 163-163zm-91 0c0 40-32 73-72 73s-72-33-72-73 32-72 72-72 72 32 72 72z"/><glyph glyph-name="afii10050" unicode="Ґ" horiz-adv-x="574" d="M566 871V579H225V0H69v712h346v159h151z"/><glyph glyph-name="sterling" unicode="£" d="M540 479H400c-1 81-39 124-109 124-57 0-99-39-99-92 0-33 26-91 44-119h133v-82H263c9-30 11-39 11-55 0-65-40-105-85-144 31 14 55 21 90 21 21 0 40-3 70-10 38-10 47-12 64-12 34 0 68 15 92 42l60-103c-44-44-99-62-161-62-51 0-74 9-121 23-36 10-66 16-90 16-36 0-64-10-107-40L25 77c54 45 108 83 108 162 0 23-4 42-17 71H18v82h64c-29 41-43 82-43 126 0 121 101 203 250 203 157 0 247-86 251-242z"/><glyph glyph-name="section" unicode="§" d="M494 537H368c-4 53-33 82-83 82-44 0-74-25-74-61 0-47 31-55 150-117 81-42 186-84 186-191 0-66-40-122-104-145 34-31 54-66 54-114 0-105-88-178-216-178-138 0-221 75-222 199h127c4-54 31-89 95-89 48 0 79 26 79 66 0 47-46 71-170 132-83 41-179 82-179 191 0 71 41 123 107 144-31 32-43 62-43 101 0 98 87 168 211 168s207-75 208-188zM188 391c-34-10-54-35-54-66 0-39 36-56 65-71l170-88c32 3 54 28 54 61 0 40-30 57-61 73z"/><glyph glyph-name="bullet" unicode="•" horiz-adv-x="501" d="M251 534c98 0 178-80 178-178s-80-178-178-178c-99 0-178 80-178 178s79 178 178 178z"/><glyph glyph-name="paragraph" unicode="¶" horiz-adv-x="620" d="M583 631h-54v-814h-99v814H322v-814h-99v430c-123 8-199 96-199 222 0 163 111 243 260 243h299v-81z"/><glyph glyph-name="afii10055" unicode="І" horiz-adv-x="295" d="M226 712V0H69v712h157z"/><glyph glyph-name="registered" unicode="®" horiz-adv-x="400" d="M199 729c103 0 187-83 187-186s-84-187-187-187S13 440 13 543s83 186 186 186zm0-32c-85 0-154-69-154-154s69-154 154-154 154 69 154 154-69 154-154 154zm-78-50h74c42 0 92-8 92-61 0-26-12-40-38-49 27-11 34-24 35-69 0-15 1-18 5-28h-48c-4 9-4 13-5 29-1 40-8 48-46 48h-20v-77h-49v207zm49-92h23c32 0 45 7 45 27 0 19-13 27-45 27h-23v-54z"/><glyph glyph-name="copyright" unicode="©" horiz-adv-x="800" d="M393 731c207 0 375-168 375-374 0-207-168-374-374-374C187-17 19 150 19 357c0 206 167 374 374 374zm0-65C222 666 84 528 84 357S222 48 393 48s310 138 310 309-139 309-310 309zm189-370c-11-95-83-159-180-159-120 0-208 94-208 220 0 131 82 223 200 223 103 0 180-67 187-162h-92c-8 50-41 79-89 79-58 0-94-52-94-138 0-87 37-139 100-139 52 0 74 28 84 76h92z"/><glyph glyph-name="trademark" unicode="™" horiz-adv-x="1000" d="M216 356v288H107v68h300v-68H300V356h-84zm238 0v356h120l87-245 87 245h118V356h-77v290L688 356h-56L531 646V356h-77z"/><glyph glyph-name="afii10051" unicode="Ђ" horiz-adv-x="778" d="M600 165c0 101-47 157-123 157-77 0-123-59-123-159V0H197v579H13v133h575V579H354V365c38 53 92 78 158 78 139 0 246-112 246-278 0-178-114-309-253-309-28 0-67 5-88 12v122c12-6 45-8 55-8 76 0 128 62 128 183z"/><glyph glyph-name="afii10099" unicode="ђ" horiz-adv-x="574" d="M539 86c0-165-88-266-292-274v114c96 11 150 44 150 169v69c0 63-15 109-91 109-94 0-111-74-111-150V0H55v435H1v96h54v181h140V531h248v-96H195V307c41 55 92 82 163 82 126 0 181-71 181-191V86z"/><glyph glyph-name="notequal" unicode="≠" horiz-adv-x="600" d="M502 530l-56-110h114V308H389l-50-97h221V99H282L200-64 96-12l57 111H40v112h170l49 97H40v112h276l82 162z"/><glyph glyph-name="afii10052" unicode="Ѓ" horiz-adv-x="574" d="M438 902L289 758h-98l89 144h158zm127-190V579H225V0H69v712h496z"/><glyph glyph-name="afii10100" unicode="ѓ" horiz-adv-x="453" d="M446 407H197V0H56v516h390V407zm-54 317L243 581h-99l90 143h158z"/><glyph glyph-name="infinity" unicode="∞" horiz-adv-x="806" d="M761 262c0-106-67-178-165-178-85 0-139 55-193 111-57-57-105-110-192-110-98 0-167 71-167 175s67 176 164 176c86 0 143-57 195-118 52 59 107 119 193 119 98 0 165-72 165-175zm-94-3c0 47-29 78-72 78-45 0-91-44-126-80 37-36 78-74 128-74 42 0 70 30 70 76zm-330-1c-36 35-83 78-129 78-40 0-70-32-70-77 0-46 29-75 73-75s94 37 126 74z"/><glyph glyph-name="plusminus" unicode="±" horiz-adv-x="600" d="M241 118v152H40v111h201v155h118V381h201V270H359V118H241zM40-17V94h520V-17H40z"/><glyph glyph-name="lessequal" unicode="≤" horiz-adv-x="600" d="M40 273v102l519 179V437L198 324l361-107V100zm0-197h519V-35H40V76z"/><glyph glyph-name="greaterequal" unicode="≥" horiz-adv-x="600" d="M559 273L40 100v117l360 107L40 437v117l519-179V273zm0-197V-35H40V76h519z"/><glyph glyph-name="afii10103" unicode="і" horiz-adv-x="258" d="M200 712V592H58v120h142zm0-196V0H58v516h142z"/><glyph glyph-name="mu" unicode="µ" horiz-adv-x="593" d="M57-183v699h141V310c0-82-12-207 99-207 92 0 100 126 100 206v207h141V0H411v72C381 22 353-8 302-8c-49 0-82 19-111 57v-232H57z"/><glyph glyph-name="afii10098" unicode="ґ" horiz-adv-x="453" d="M446 658V407H197V0H56v516h256v142h134z"/><glyph glyph-name="afii10057" unicode="Ј" d="M498 712V223c0-156-77-240-234-240C118-17 26 57 26 219v47h144v-22c0-66 0-135 89-135 78 0 83 56 83 119v484h156z"/><glyph glyph-name="afii10053" unicode="Є" horiz-adv-x="741" d="M463 309H202c14-120 83-194 185-194 86 0 141 47 159 136h156C679 90 572-17 386-17 179-17 42 132 42 357c0 207 132 372 350 372 165 0 287-101 306-240H543c-20 69-76 109-154 109-108 0-163-76-182-166h256V309z"/><glyph glyph-name="afii10101" unicode="є" horiz-adv-x="574" d="M542 178C518 57 429-13 299-13 140-13 36 93 36 254c0 167 105 277 265 277 133 0 224-70 241-183H401c-12 49-48 77-99 77-63 0-105-41-118-113h163v-90H181c9-81 51-127 118-127 54 0 90 29 105 83h138z"/><glyph glyph-name="afii10056" unicode="Ї" horiz-adv-x="295" d="M226 712V0H69v712h157zm92 176V772H185v116h133zm-209 0V772H-24v116h133z"/><glyph glyph-name="afii10104" unicode="ї" horiz-adv-x="258" d="M200 516V0H58v516h142zm99 196V596H166v116h133zm-209 0V596H-43v116H90z"/><glyph glyph-name="afii10058" unicode="Љ" horiz-adv-x="1054" d="M480 579H309l-10-302C292 75 223-14 101-14 73-14 34-9 13-2v126c12-6 35-12 55-12 42 0 76 21 80 167l12 433h476V444h141c143 0 253-60 253-215C1030 72 923 0 769 0H480v579zm398-352c0 65-52 80-122 80H636V133h121c75 0 121 26 121 94z"/><glyph glyph-name="afii10106" unicode="љ" horiz-adv-x="822" d="M803 165C803 51 720 0 608 0H371v407H254l-6-182C244 118 238-16 82-16 62-16 20-12 5-6v113c10-2 25-5 40-5 41 0 62 33 64 107l8 307h395V329h102c103 0 189-52 189-164zm-143 0c0 50-38 64-87 64h-61V101h61c53 0 87 14 87 64z"/><glyph glyph-name="afii10059" unicode="Њ" horiz-adv-x="1054" d="M480 307H225V0H69v712h156V444h255v268h156V444h141c143 0 253-60 253-215C1030 72 923 0 769 0H480v307zm398-80c0 65-52 80-122 80H636V133h121c75 0 121 26 121 94z"/><glyph glyph-name="afii10107" unicode="њ" horiz-adv-x="822" d="M366 229H197V0H56v516h141V329h169v187h141V329h107c103 0 189-52 189-164C803 51 720 0 608 0H366v229zm141 0V101h66c53 0 87 14 87 64s-38 64-87 64h-66z"/><glyph glyph-name="afii10105" unicode="ј" horiz-adv-x="278" d="M210 516V-1c0-131-36-186-172-186-17 0-28 0-57 2v114c12-1 17-1 26-1 60 0 61 24 61 75v513h142zm0 196V590H68v122h142z"/><glyph glyph-name="afii10054" unicode="Ѕ" horiz-adv-x="649" d="M596 500H448c-6 69-52 106-135 106-72 0-115-30-115-81 0-62 76-67 218-107 127-36 208-85 208-204C624 46 476-16 331-16 138-16 24 77 22 238h155c3-96 66-134 161-134 82 0 132 36 132 95 0 56-48 66-195 108-116 33-227 62-227 207 0 129 108 213 274 213 150 0 271-68 274-227z"/><glyph glyph-name="logicalnot" unicode="¬" horiz-adv-x="600" d="M40 308v112h520V99H447v209H40z"/><glyph glyph-name="radical" unicode="√" horiz-adv-x="600" d="M583 786L371-214H240L86 105 37 82l-40 85 158 65L287-49l171 835h125z"/><glyph glyph-name="florin" unicode="ƒ" d="M451 430l-17-94h-99L278 27c-26-143-65-198-219-198-21 0-33 0-65 2L12-63c15-1 21-1 30-1 55 0 73 9 87 82l60 318H98l17 94h92l20 109c24 131 80 179 209 179 28 0 41-1 73-3l-20-106c-21 2-27 2-38 2-61 0-70-31-80-83l-18-98h98z"/><glyph glyph-name="approxequal" unicode="≈" horiz-adv-x="600" d="M419 70c-61 0-150 38-211 59-18 6-32 10-45 10-39 0-56-39-62-70H26c7 82 44 176 148 176 46 0 91-20 134-34 33-11 91-33 126-33 40 0 55 34 61 67h75c-9-89-46-175-151-175zm2 203c-61 0-150 38-211 59-18 6-32 10-45 10-39 0-56-39-62-70H28c7 82 44 176 148 176 46 0 91-20 134-34 33-11 91-33 126-33 40 0 55 34 61 67h75c-9-89-46-175-151-175z"/><glyph glyph-name="Delta" unicode="∆" horiz-adv-x="682" d="M390 694L674 0H9l272 694h109zm-56-141L166 104h346z"/><glyph glyph-name="guillemotleft" unicode="«" horiz-adv-x="444" d="M395 454V334l-88-69 88-69V75L239 198v133zm-195 0V336l-90-69 90-71V74L42 200v131z"/><glyph glyph-name="guillemotright" unicode="»" horiz-adv-x="444" d="M244 456l158-126V198L244 75v118l91 70-91 72v121zm-195-1l156-124V199L49 77v117l89 70-89 69v122z"/><glyph glyph-name="ellipsis" unicode="…" horiz-adv-x="1000" d="M100 0v134h133V0H100zm333 0v134h133V0H433zm333 0v134h133V0H766z"/><glyph glyph-name="nbspace" unicode="" horiz-adv-x="278"/><glyph glyph-name="afii10060" unicode="Ћ" horiz-adv-x="778" d="M738 0H582v201c0 86-31 117-111 117-43 0-94-12-117-16V0H197v579H13v133h575V579H354V428c34 7 101 20 143 20 160 0 241-66 241-249V0z"/><glyph glyph-name="afii10108" unicode="ћ" horiz-adv-x="574" d="M539 0H397v164c0 63-15 109-91 109-94 0-111-74-111-150V0H55v435H2v96h53v181h140V531h249v-96H195V307c41 55 92 82 163 82 126 0 181-71 181-191V0z"/><glyph glyph-name="afii10061" unicode="Ќ" horiz-adv-x="722" d="M702 712L423 431 728 0H532L316 320l-91-90V0H71v712h154V416l280 296h197zM498 902L349 758h-98l89 144h158z"/><glyph glyph-name="afii10109" unicode="ќ" horiz-adv-x="574" d="M472 724L323 581h-99l90 143h158zM581 0H409L260 219l-63-64V0H58v516h139V312l189 204h167L356 317z"/><glyph glyph-name="afii10102" unicode="ѕ" horiz-adv-x="537" d="M490 366H358c-8 54-41 71-98 71-50 0-80-19-80-51 0-43 44-49 126-66 93-19 201-43 201-160 0-108-89-175-236-175C142-15 31 36 29 168h135c5-62 45-86 110-86 58 0 94 25 94 64 0 44-42 52-116 69-92 21-212 35-212 158 0 101 82 158 226 158 118 0 220-45 224-165z"/><glyph glyph-name="endash" unicode="–" horiz-adv-x="500" d="M500 335V209H0v126h500z"/><glyph glyph-name="emdash" unicode="—" horiz-adv-x="1000" d="M1000 335V209H0v126h1000z"/><glyph glyph-name="quotedblleft" unicode="“" horiz-adv-x="463" d="M408 395H265v125c0 96 43 175 143 192v-66c-50-15-65-49-67-98h67V395zm-212 0H53v125c0 96 43 175 143 192v-66c-50-15-65-49-67-98h67V395z"/><glyph glyph-name="quotedblright" unicode="”" horiz-adv-x="463" d="M410 712V587c0-96-43-175-143-192v66c50 15 65 49 67 98h-67v153h143zm-212 0V587c0-96-43-175-143-192v66c50 15 65 49 67 98H55v153h143z"/><glyph glyph-name="quoteleft" unicode="‘" horiz-adv-x="278" d="M218 390H60v122c0 107 36 181 158 200v-70c-44-12-69-44-71-96h71V390z"/><glyph glyph-name="quoteright" unicode="’" horiz-adv-x="278" d="M218 590c0-107-36-181-158-200v70c44 12 69 44 71 96H60v156h158V590z"/><glyph glyph-name="divide" unicode="÷" horiz-adv-x="600" d="M40 208v125h520V208H40zM238 8v134h124V8H238zm0 391v134h124V399H238z"/><glyph glyph-name="quotedblbase" unicode="„" horiz-adv-x="463" d="M409 154V29c0-96-43-175-143-192v66c50 15 65 49 67 98h-67v153h143zm-212 0V29c0-96-43-175-143-192v66c50 15 65 49 67 98H54v153h143z"/><glyph glyph-name="afii10062" unicode="Ў" horiz-adv-x="667" d="M461 904h56c0-103-66-144-163-144s-163 41-163 144h56c9-46 53-66 107-66s98 20 107 66zM102 3v132c19-8 46-16 75-16 48 0 72 29 72 61 0 31-19 63-33 92L7 712h173l161-375 158 375h167L426 188C360 43 304-13 189-13c-38 0-72 10-87 16z"/><glyph glyph-name="afii10110" unicode="ў" horiz-adv-x="519" d="M374 712h56c0-103-66-144-163-144s-163 41-163 144h56c9-46 53-66 107-66s98 20 107 66zm149-196L333 2c-42-114-66-186-197-186-44 0-26 0-95 1v117h69c47 0 72 26 72 69 0 5-2 14-4 20L-9 516h153l118-351 114 351h147z"/><glyph glyph-name="afii10145" unicode="Џ" horiz-adv-x="741" d="M446 0v-183H295V0H69v712h156V133h291v579h156V0H446z"/><glyph glyph-name="afii10193" unicode="џ" horiz-adv-x="593" d="M537 0H364v-152H230V0H56v516h141V109h199v407h141V0z"/><glyph glyph-name="afii61352" unicode="№" horiz-adv-x="1046" d="M844 452c98 0 162-64 162-161 0-98-64-162-163-162s-164 64-164 162c0 97 66 161 165 161zM69 0v694h159l243-439v439h150V0H465L220 440V0H69zm930 98V0H698v98h301zM778 291c0-59 25-88 65-88 39 0 65 29 65 88 0 58-27 87-66 87-38 0-64-30-64-87z"/><glyph glyph-name="afii10023" unicode="Ё" horiz-adv-x="648" d="M603 712V584H224V429h348V306H224V131h386V0H69v712h534zm-97 176V772H373v116h133zm-209 0V772H164v116h133z"/><glyph glyph-name="afii10071" unicode="ё" horiz-adv-x="574" d="M459 712V596H326v116h133zm-210 0V596H116v116h133zm290-552C507 48 414-15 297-15 138-15 33 93 33 255c0 160 109 276 259 276 156 0 255-114 255-295v-14H177c2-89 45-137 121-137 52 0 84 23 105 75h136zM403 312c-6 63-40 116-111 116-63 0-107-44-115-116h226z"/><glyph glyph-name="afii10097" unicode="я" horiz-adv-x="574" d="M517 0H376v191h-60L168 0H-6l171 203C92 215 34 274 34 359c0 91 71 157 171 157h312V0zM376 293v121H263c-65 0-85-21-85-60 0-40 19-61 85-61h113z"/><glyph glyph-name="afii10065" unicode="а" horiz-adv-x="574" d="M534 0H390c-7 19-8 27-10 50-44-44-105-65-167-65C99-15 29 44 29 141c0 135 123 151 225 164 92 12 126 20 126 62 0 47-30 69-93 69-65 0-92-20-102-79H52c8 115 90 174 239 174 104 0 225-24 225-168V140c0-47-1-96 18-140zM379 251c-33-19-64-21-100-27-49-8-104-14-104-77 0-43 29-69 78-69 74 0 126 41 126 115v58z"/><glyph glyph-name="afii10066" unicode="б" horiz-adv-x="611" d="M570 252C570 90 467-15 301-15 115-15 51 151 51 302c0 153 19 342 208 392 60 16 139 10 153 40h135c-18-130-120-147-240-158-129-12-170-105-181-206h3c25 69 86 146 204 146 132 0 237-104 237-264zm-142 1c0 101-45 158-119 158-70 0-116-58-116-159 0-104 45-160 118-160 72 0 117 57 117 161z"/><glyph glyph-name="afii10067" unicode="в" horiz-adv-x="574" d="M52 516h297c91 0 165-38 165-130 0-50-28-87-70-106 53-15 94-55 94-126C538 53 460 0 363 0H52v516zm140-207h94c42 0 84 8 84 59 0 50-40 58-84 58h-94V309zm0-217h105c49 0 94 9 94 68 0 60-49 69-100 69h-99V92z"/><glyph glyph-name="afii10068" unicode="г" horiz-adv-x="453" d="M446 407H197V0H56v516h390V407z"/><glyph glyph-name="afii10069" unicode="д" horiz-adv-x="628" d="M613-152H480V0H140v-152H7v261h62c30 59 65 197 65 317v90h412V109h67v-261zM405 109v302H266v-13c0-109-34-235-58-289h197z"/><glyph glyph-name="afii10070" unicode="е" horiz-adv-x="574" d="M539 160C507 48 414-15 297-15 138-15 33 93 33 255c0 160 109 276 259 276 156 0 255-114 255-295v-14H177c2-89 45-137 121-137 52 0 84 23 105 75h136zM403 312c-6 63-40 116-111 116-63 0-107-44-115-116h226z"/><glyph glyph-name="afii10072" unicode="ж" horiz-adv-x="822" d="M289 217L164 0H-3l199 320L20 516h162l162-205v205h134V311l162 205h162L623 317 825 0H658L533 217l-55-62V0H344v155z"/><glyph glyph-name="afii10073" unicode="з" horiz-adv-x="537" d="M505 153c0-112-97-168-241-168C135-15 24 36 22 168h135c5-56 45-86 110-86 64 0 92 30 92 69 0 43-27 72-89 72h-55v89h37c60 0 98 15 98 67 0 31-26 58-81 58-57 0-90-17-98-71H39c4 120 115 165 233 165 136 0 216-43 216-139 0-59-49-107-93-114v-2c49-6 110-33 110-123z"/><glyph glyph-name="afii10074" unicode="и" horiz-adv-x="593" d="M537 0H401v349L217 0H56v516h136V167l184 349h161V0z"/><glyph glyph-name="afii10075" unicode="й" horiz-adv-x="593" d="M403 712h56c0-103-66-144-163-144s-163 41-163 144h56c9-46 53-66 107-66s98 20 107 66zM537 0H401v349L217 0H56v516h136V167l184 349h161V0z"/><glyph glyph-name="afii10076" unicode="к" horiz-adv-x="574" d="M581 0H409L260 222l-63-64V0H58v516h139V312l189 204h167L353 316z"/><glyph glyph-name="afii10077" unicode="л" horiz-adv-x="593" d="M534 0H393v407H257l-6-182C247 118 241-16 85-16 65-16 23-12 8-6v113c10-2 25-5 40-5 41 0 62 33 64 107l8 307h414V0z"/><glyph glyph-name="afii10078" unicode="м" horiz-adv-x="722" d="M666 0H532v392h-3L428 0H294L193 392h-3V0H56v516h206l97-375h4l97 375h206V0z"/><glyph glyph-name="afii10079" unicode="н" horiz-adv-x="593" d="M537 0H396v217H197V0H56v516h141V329h199v187h141V0z"/><glyph glyph-name="afii10080" unicode="о" horiz-adv-x="611" d="M572 258C572 92 467-16 306-16S39 93 39 258c0 164 107 273 269 273 159 0 264-109 264-273zm-142 1c0 103-47 164-126 164-76 0-123-62-123-165 0-106 46-167 125-167 78 0 124 62 124 168z"/><glyph glyph-name="afii10081" unicode="п" horiz-adv-x="593" d="M537 0H396v407H197V0H56v516h481V0z"/><glyph glyph-name="afii10082" unicode="р" horiz-adv-x="611" d="M188 516v-64c38 53 94 78 160 78 139 0 230-109 230-275 0-162-89-268-224-268-65 0-121 24-159 77v-247H54v699h134zm125-100c-77 0-123-59-123-159S236 98 314 98c76 0 122 59 122 157 0 101-47 161-123 161z"/><glyph glyph-name="afii10083" unicode="с" horiz-adv-x="574" d="M546 199C528 65 436-13 299-13 140-13 36 93 36 254c0 167 105 277 265 277 138 0 230-75 242-195H404c-10 57-47 89-102 89-77 0-123-62-123-168 0-103 44-162 120-162 61 0 99 36 110 104h137z"/><glyph glyph-name="afii10084" unicode="т" horiz-adv-x="500" d="M491 407H321V0H180v407H10v109h481V407z"/><glyph glyph-name="afii10085" unicode="у" horiz-adv-x="519" d="M523 516L333 2c-42-114-66-186-197-186-44 0-26 0-95 1v117h69c47 0 72 26 72 69 0 5-2 14-4 20L-9 516h153l118-351 114 351h147z"/><glyph glyph-name="afii10086" unicode="ф" horiz-adv-x="846" d="M810 266c0-144-53-280-207-280-43 0-87 23-107 48h-3v-217H353V34h-3c-20-25-64-48-107-48C89-14 36 122 36 266c0 163 77 265 200 265 60 0 99-25 114-53h3v234h140V478h3c15 28 54 53 114 53 123 0 200-102 200-265zm-140-3c0 100-29 159-96 159-30 0-68-14-81-55V145c5-26 35-50 77-50 79 0 100 83 100 168zM353 145v222c-13 41-51 55-81 55-67 0-96-59-96-159 0-85 21-168 100-168 42 0 72 24 77 50z"/><glyph glyph-name="afii10087" unicode="х" horiz-adv-x="537" d="M517 516L347 275 538 0H376L267 167 159 0H-2l188 272L15 516h162l92-138 91 138h157z"/><glyph glyph-name="afii10088" unicode="ц" horiz-adv-x="603" d="M591-152H458V0H53v516h141V109h191v407h141V109h65v-261z"/><glyph glyph-name="afii10089" unicode="ч" horiz-adv-x="574" d="M378 302v214h141V0H378v203c-28-7-100-23-165-23-114 0-173 69-173 179v157h141V388c0-75 16-101 79-101 34 0 96 9 118 15z"/><glyph glyph-name="afii10090" unicode="ш" horiz-adv-x="843" d="M787 0H56v516h141V109h154v407h141V109h154v407h141V0z"/><glyph glyph-name="afii10091" unicode="щ" horiz-adv-x="855" d="M53 0v516h141V109h151v407h141V109h151v407h141V109h65v-261H710V0H53z"/><glyph glyph-name="afii10092" unicode="ъ" horiz-adv-x="648" d="M162 407H8v109h294V339h137c104 0 189-57 189-169C628 56 545 0 433 0H162v407zm140-164V98h97c52 0 86 22 86 72s-38 73-87 73h-96z"/><glyph glyph-name="afii10093" unicode="ы" horiz-adv-x="741" d="M553 516h141V0H553v516zm-65-346C488 56 405 0 293 0H47v516h140V339h112c104 0 189-57 189-169zm-301 73V98h72c52 0 86 22 86 72s-38 73-87 73h-71z"/><glyph glyph-name="afii10094" unicode="ь" horiz-adv-x="537" d="M517 170C517 56 434 0 322 0H51v516h140V339h137c104 0 189-57 189-169zm-326 73V98h97c52 0 86 22 86 72s-38 73-87 73h-96z"/><glyph glyph-name="afii10095" unicode="э" horiz-adv-x="574" d="M538 254C538 93 434-13 275-13 145-13 56 57 32 178h138c15-54 51-83 105-83 67 0 109 46 118 127H227v90h163c-13 72-55 113-118 113-51 0-87-28-99-77H32c17 113 108 183 241 183 160 0 265-110 265-277z"/><glyph glyph-name="afii10096" unicode="ю" horiz-adv-x="836" d="M296 220h-99V0H56v516h141V320h102c21 129 111 211 249 211 154 0 249-109 249-273 0-166-95-274-251-274-146 0-237 92-250 236zm359 39c0 103-40 164-111 164-69 0-108-62-108-165 0-106 39-167 110-167 70 0 109 62 109 168z"/><glyph glyph-name="currency" unicode="¤" d="M524 173l-61-61-67 66c-36-24-73-36-117-36s-85 13-119 36l-67-66-61 61 66 66c-24 38-36 73-36 119 0 43 11 80 36 119l-66 66 61 61 66-66c36 23 76 36 119 36 44 0 82-14 120-36l65 66 61-61-66-66c23-32 36-76 36-120 0-43-13-82-36-118zM382 358c0 57-47 104-104 104-58 0-104-47-104-104 0-58 47-104 104-104s104 46 104 104z"/><glyph glyph-name="hyphenminus" unicode="" horiz-adv-x="407" d="M354 336V209H53v127h301z"/><glyph glyph-name="quotesinglbase" unicode="‚" horiz-adv-x="278" d="M218 156V34c0-107-36-181-158-200v70c44 12 69 44 71 96H60v156h158z"/><glyph glyph-name="daggerdbl" unicode="‡" d="M532 522V404H346V144h186V26H346v-190H209V26H24v118h185v260H24v118h185v190h137V522h186z"/><glyph glyph-name="perthousand" unicode="‰" horiz-adv-x="1147" d="M656 720L218-28h-86l440 748h84zm-69-391c91 0 143-60 143-166 0-115-50-176-145-176S439 46 439 156c0 113 52 173 148 173zm346 1c92 0 144-61 144-168 0-113-51-175-145-175-95 0-147 59-147 169 0 112 53 174 148 174zM216 705c95 0 145-59 145-172 0-108-54-171-147-171S70 422 70 532c0 111 52 173 146 173zm369-441c-38 0-57-34-57-106 0-74 17-105 58-105 37 0 54 35 54 109 0 69-18 102-55 102zm346 1c-38 0-57-35-57-108 0-70 20-104 58-104 37 0 55 35 55 108 0 71-18 104-56 104zM214 640c-37 0-55-37-55-112 0-67 18-100 56-100 37 0 55 36 55 108 0 71-17 104-56 104z"/><glyph glyph-name="guilsinglleft" unicode="‹" horiz-adv-x="241" d="M193 453V334l-89-69 89-70V74L37 199v132z"/><glyph glyph-name="guilsinglright" unicode="›" horiz-adv-x="241" d="M47 455l157-124V197L47 76v117l89 71-89 70v121z"/><glyph glyph-name="brokenbar" unicode="¦" horiz-adv-x="223" d="M58-89v250h107V-89H58zm0 500v250h107V411H58z"/><glyph glyph-name="periodcentered" unicode="·" horiz-adv-x="278" d="M218 365V209H60v156h158z"/><glyph glyph-name="space" horiz-adv-x="278"/></font>
</defs>
</svg>
